<svg width="18" height="18" viewBox="0 0 18 18" fill="none" xmlns="http://www.w3.org/2000/svg">
<path fill-rule="evenodd" clip-rule="evenodd" d="M3.9667 1.63325H0V0.5H5.09999V5.03316H17.1593L16.9832 5.73725L15.2832 12.5373L15.1761 12.9667H3.96701L3.9667 1.63325ZM5.09995 6.16678V11.8332H14.2909L15.7074 6.16678H5.09995ZM6.23335 16.3667C6.23335 16.9927 5.7259 17.5 5.09995 17.5C4.47411 17.5 3.9667 16.9927 3.9667 16.3667C3.9667 15.7408 4.47414 15.2333 5.09995 15.2333C5.72594 15.2333 6.23335 15.7408 6.23335 16.3667ZM14.1667 17.5C14.7927 17.5 15.3 16.9927 15.3 16.3667C15.3 15.7408 14.7927 15.2333 14.1667 15.2333C13.5408 15.2333 13.0335 15.7408 13.0335 16.3667C13.0335 16.9927 13.5408 17.5 14.1667 17.5Z" fill="white"/>
</svg>
