<svg width="85" height="85" viewBox="0 0 85 85" fill="none" xmlns="http://www.w3.org/2000/svg">
<rect width="85" height="85" rx="19" fill="#FF9900"/>
<path d="M0 36C0 23.7435 0 17.6152 3.80761 13.8076C7.61522 10 13.7435 10 26 10H59C71.2565 10 77.3848 10 81.1924 13.8076C85 17.6152 85 23.7435 85 36V47C85 64.9134 85 73.8701 79.435 79.435C73.8701 85 64.9134 85 47 85H38C20.0866 85 11.1299 85 5.56497 79.435C0 73.8701 0 64.9134 0 47V36Z" fill="#E62E04"/>
<path d="M28.1025 65.5136V56.1706H33.6198V57.341H29.2433V60.2135H33.177V61.3839H29.2433V64.3147H33.9249V65.4851H28.1085L28.1025 65.5136ZM39.727 65.5136L37.829 63.0357L35.9404 65.5142H34.6026L37.1992 62.2L34.465 58.7678H35.9695L37.8379 61.3347L39.7359 58.7678H41.2114L38.6148 62.2L41.0636 65.5142L39.727 65.5136ZM42.9035 64.5046V69.1191H41.7627V62.2344C41.7627 60.4741 43.1005 58.6051 45.195 58.6051C47.3097 58.6051 48.9026 59.9429 48.9026 62.1454C48.9026 64.2892 47.2895 65.7747 45.4508 65.7747C44.5558 65.7747 43.3557 65.3812 42.9035 64.5165V64.5046ZM47.7026 62.1341C47.7026 60.6296 46.7292 59.7346 44.9979 59.823C44.167 59.8527 42.8833 60.4622 42.9919 62.6125C43.0216 63.3111 43.7492 64.6186 45.3327 64.6186C46.6995 64.6287 47.7032 63.847 47.7032 62.1401L47.7026 62.1341ZM49.8772 65.5456V58.7666H51.0179V59.4942C51.5788 58.855 52.4441 58.6289 53.3587 58.6289V59.8574C53.221 59.8278 51.8542 59.6616 51.0179 61.4504V65.5456H49.8772ZM53.6727 62.1395C53.6727 60.1928 55.0692 58.5992 56.9868 58.5992C59.3864 58.5992 60.2719 60.1922 60.2719 62.2285V62.7894H54.922C55.011 64.0678 56.1506 64.7361 57.2034 64.7171C57.975 64.6874 58.5115 64.4619 59.0718 63.9099L59.8291 64.6815C59.1306 65.3504 58.2362 65.7925 57.1542 65.7925C55.1185 65.7628 53.6727 64.2583 53.6727 62.1341V62.1395ZM56.8984 59.7399C55.8063 59.7399 54.9707 60.6895 54.922 61.7163H59.0724C59.0724 60.7228 58.3602 59.7399 56.899 59.7399H56.8984Z" fill="white"/>
<path d="M60.8828 64.5732L61.7137 63.8159C61.684 63.8159 62.1369 64.2587 62.1856 64.2877C62.3678 64.4498 62.5874 64.5649 62.8248 64.6219C63.5524 64.8177 64.8605 64.7596 64.9685 63.7566C65.0279 63.1957 64.6047 62.8912 64.1376 62.6882C63.5281 62.4627 62.8592 62.3832 62.2396 62.0983C61.541 61.7932 61.0988 61.2674 61.0988 60.4851C61.0988 58.4494 63.9999 58.1147 65.308 59.0589L65.9769 59.6981L65.146 60.367C64.7228 59.8655 64.3388 59.6097 63.4444 59.6097C63.0016 59.6097 62.3761 59.8056 62.274 60.2786C62.1066 60.9475 62.8639 61.2033 63.3661 61.3469C64.0349 61.5143 64.7626 61.6223 65.3424 61.9861C66.1496 62.4876 66.3514 63.5791 66.041 64.4153C65.7068 65.34 64.7032 65.6938 63.8082 65.7234C62.7399 65.7828 61.8318 65.4481 61.0739 64.6907C61.0247 64.7103 60.887 64.572 60.887 64.572L60.8828 64.5732Z" fill="white"/>
<path d="M66.7383 64.5732L67.5692 63.8159C67.5395 63.8159 67.9924 64.2587 68.041 64.2877C68.2232 64.4498 68.4428 64.5649 68.6802 64.6219C69.4079 64.8177 70.716 64.7596 70.824 63.7566C70.8833 63.1957 70.4602 62.8912 69.9931 62.6882C69.3835 62.4627 68.7147 62.3832 68.095 62.0983C67.3965 61.7932 66.9543 61.2674 66.9543 60.4851C66.9543 58.4494 69.8554 58.1147 71.1635 59.0589L71.8324 59.6981L71.0015 60.367C70.5783 59.8655 70.1943 59.6097 69.2999 59.6097C68.8571 59.6097 68.2315 59.8056 68.1295 60.2786C67.9621 60.9475 68.7194 61.2033 69.2215 61.3469C69.8904 61.5143 70.618 61.6223 71.1979 61.9861C72.0051 62.4876 72.2069 63.5791 71.8965 64.4153C71.5623 65.34 70.5587 65.6938 69.6637 65.7234C68.5954 65.7828 67.6873 65.4481 66.9294 64.6907C66.8801 64.7103 66.7424 64.572 66.7424 64.572L66.7383 64.5732Z" fill="white"/>
<path d="M20.3797 65.514L19.5488 63.2812H15.0298L14.1989 65.514H13L16.6293 56.171H17.9374L21.537 65.514H20.3797ZM17.2317 57.5183L15.5301 62.1506H19.0704L17.2317 57.5183ZM22.2777 65.514V56.171H23.4481V65.514H22.2777ZM25.2085 65.514V58.9112H26.3789V65.5199L25.2085 65.514ZM27.4899 56.7609V56.6422C26.5949 56.6126 25.8768 55.8849 25.8477 55H25.6714C25.6417 55.895 24.9141 56.6132 24.0292 56.6422V56.7609C24.9242 56.7906 25.6423 57.5183 25.6714 58.4032H25.8483C25.8797 57.5147 26.602 56.7924 27.4905 56.7609H27.4899Z" fill="white"/>
<path d="M23.0426 22.9732C23.374 24.1731 23.1873 25.469 23.5133 26.6892C24.6495 25.9513 25.407 24.7334 25.2514 23.4652C25.2284 21.195 22.3501 19.4156 19.9411 20.1799C18.4261 20.5639 17.3062 21.7698 17.0519 23.1316C16.7489 24.6914 17.8053 26.2873 19.3757 27C19.2201 25.6561 18.8563 24.2403 19.2634 22.9252C19.8856 21.4926 22.4691 21.5214 23.044 22.9732H23.0426ZM67.8656 24.6003C68.4174 22.8388 67.2163 20.7967 65.2469 20.2327C63.3533 19.5728 61.0092 20.4127 60.1746 22.0493C59.244 23.5648 59.8067 25.7209 61.5083 26.6088C61.8437 25.3922 61.5962 24.0891 61.9952 22.9072C62.631 21.495 65.1806 21.5358 65.7609 22.9672C66.1302 24.2463 65.7961 25.5901 65.6568 26.8812C66.8119 26.5644 67.5328 25.5854 67.8642 24.6039L67.8656 24.6003Z" fill="#B32100"/>
<path d="M62.0505 23.1969C61.6489 24.571 61.8972 26.0583 61.562 27.4573C60.5689 33.5338 56.5718 38.9639 51.1596 41.6859C45.6999 44.4824 39.2471 44.4742 33.7956 41.6638C28.4336 38.9487 24.4677 33.5641 23.4488 27.5526C23.1231 26.1467 23.3077 24.6704 22.9766 23.2756C22.4013 21.6184 19.8099 21.57 19.1858 23.2203C18.7787 24.7477 19.1451 26.3649 19.2984 27.9103C20.4381 35.423 25.3768 42.1692 32.0684 45.5182C38.2892 48.6517 45.5643 48.8257 51.9248 45.996C59.1605 42.8155 64.57 35.713 65.7273 27.7666C65.8671 26.2807 66.2022 24.7325 65.8305 23.2618C65.247 21.6142 62.6909 21.5686 62.0518 23.1927L62.0505 23.1969Z" fill="white"/>
</svg>
