<svg width="34" height="34" viewBox="0 0 34 34" fill="none" xmlns="http://www.w3.org/2000/svg">
<rect width="34" height="34" rx="10" fill="#F8F8F8"/>
<path d="M18.2228 14.7055H13.6935L16.0056 12.4681L15.3914 11.8363L12 15.1179L15.3914 18.4039L16.0056 17.7766L13.7375 15.583H18.2226C19.0064 15.5395 19.7734 15.8205 20.3437 16.3598C20.9138 16.8994 21.2369 17.6496 21.2369 18.4346C21.2369 19.2195 20.9138 19.9699 20.3437 20.5093C19.7734 21.0487 19.0064 21.3298 18.2226 21.2863H12.3862V22.1637H18.2226C19.2084 22.1628 20.1548 21.7772 20.8604 21.0889C21.5659 20.4005 21.9748 19.4639 22 18.4785V18.3863C21.9736 17.4016 21.5643 16.4663 20.8589 15.7788C20.1534 15.0915 19.2079 14.7063 18.2228 14.7055Z" fill="black" stroke="black"/>
</svg>
