<svg width="331" height="285" viewBox="0 0 331 285" fill="none" xmlns="http://www.w3.org/2000/svg">
<path d="M329.194 162.613L275.391 116.596L194.685 47.2171L140.881 0.84708C139.819 -0.214653 138.048 -0.214651 136.634 0.493999L2.12347 69.8729C1.06174 70.5816 0.353089 71.6433 0 72.705C0 74.1199 0.353085 75.1841 1.41482 75.8902L54.1576 120.843V211.46V212.169V212.878C54.1576 213.231 54.5107 213.231 54.5107 213.586C54.5107 213.939 54.8638 213.939 54.8638 214.295L135.57 283.674H135.923C136.276 283.674 136.276 284.027 136.632 284.027H136.985H137.338C137.691 284.027 138.046 284.38 138.4 284.38C138.753 284.38 139.108 284.38 139.814 284.027H140.167L274.678 214.648C276.092 213.939 276.801 212.878 276.801 211.463V195.179L328.488 168.984C329.549 168.275 330.258 167.214 330.611 166.152C330.964 165.09 330.255 163.32 329.194 162.611L329.194 162.613ZM206.011 150.932L194.682 141.374L194.685 131.465C194.685 130.051 193.623 128.986 192.206 128.986C190.791 128.986 189.727 130.048 189.727 131.465V142.438V142.791V143.144C189.727 143.144 189.727 143.497 190.08 143.497L190.433 143.85L201.053 153.053L139.46 184.909H139.107H138.399H138.046H137.693L129.552 177.48L144.065 170.045C145.127 169.336 145.836 167.922 145.127 166.504C144.418 165.443 143.004 164.734 141.586 165.443L125.305 173.941L62.2974 119.783L189.728 53.9439V69.5194C189.728 70.9342 190.79 71.9984 192.207 71.9984C193.622 71.9984 194.686 70.9367 194.686 69.5194L194.684 57.129L267.248 119.428L206.011 150.932ZM138.048 8.28054L186.541 50.0508L59.4646 115.536L10.6156 73.7683L138.048 8.28054ZM142.294 274.823V262.789C142.294 260.665 140.524 258.895 138.401 258.895C136.277 258.895 134.507 260.665 134.507 262.789V273.053L61.5881 210.048V125.802L123.534 178.898L134.862 188.456V250.048C134.862 252.172 136.632 253.942 138.756 253.942C140.879 253.942 142.65 252.172 142.65 250.048V196.949L189.726 237.658C190.435 238.366 191.141 238.719 192.205 238.719C192.914 238.719 193.267 238.719 193.976 238.366L269.018 199.428V209.339L142.294 274.823ZM271.141 189.869L192.913 230.222L144.064 188.455L271.14 122.969L319.634 164.737L271.141 189.869Z" fill="#F8F8F8"/>
</svg>
