<svg width="20" height="19" viewBox="0 0 20 19" fill="none" xmlns="http://www.w3.org/2000/svg">
<path d="M19.5615 3.87438C19.1826 3.39011 18.5929 3.09532 17.9823 3.09532H5.15883L4.75872 1.53709C4.52709 0.631735 3.7269 0 2.80053 0H0.652717C0.294774 0 0 0.294785 0 0.652717C0 1.01066 0.294785 1.30543 0.652717 1.30543H2.80053C3.11632 1.30543 3.39011 1.51606 3.47441 1.83185L6.04332 12.0654C6.27495 12.9707 7.07513 13.6024 8.0015 13.6024H16.4031C17.3296 13.6024 18.1508 12.9707 18.3613 12.0654L19.9405 5.57992C20.0878 4.99034 19.9615 4.35875 19.5614 3.87438H19.5615ZM18.6562 5.28517L17.0769 11.7706C16.9928 12.0864 16.719 12.297 16.403 12.297H8.00147C7.68568 12.297 7.41188 12.0864 7.32758 11.7706L5.4957 4.42185H17.9823C18.1929 4.42185 18.4033 4.52716 18.5297 4.69563C18.6562 4.8641 18.7193 5.07472 18.6562 5.28521L18.6562 5.28517Z" fill="#434C5D"/>
<path d="M8.44359 14.4448C7.24329 14.4448 6.25378 15.4344 6.25378 16.6346C6.25378 17.8349 7.24344 18.8244 8.44359 18.8244C9.6439 18.8246 10.6336 17.8349 10.6336 16.6346C10.6336 15.4344 9.6439 14.4448 8.44359 14.4448ZM8.44359 17.498C7.95933 17.498 7.58024 17.119 7.58024 16.6346C7.58024 16.1503 7.95918 15.7712 8.44359 15.7712C8.92786 15.7712 9.30695 16.1502 9.30695 16.6346C9.30695 17.0978 8.90684 17.498 8.44359 17.498Z" fill="#434C5D"/>
<path d="M15.687 14.4448C14.4867 14.4448 13.4972 15.4344 13.4972 16.6346C13.4972 17.8349 14.4869 18.8244 15.687 18.8244C16.8873 18.8244 17.8768 17.8347 17.8768 16.6346C17.8558 15.4344 16.8873 14.4448 15.687 14.4448ZM15.687 17.498C15.2027 17.498 14.8236 17.119 14.8236 16.6346C14.8236 16.1503 15.2026 15.7712 15.687 15.7712C16.1713 15.7712 16.5504 16.1502 16.5504 16.6346C16.5504 17.0978 16.1502 17.498 15.687 17.498Z" fill="#434C5D"/>
</svg>
