<svg width="26" height="25" viewBox="0 0 26 25" fill="none" xmlns="http://www.w3.org/2000/svg">
<path d="M12.8694 25C19.7729 25 25.3694 19.4036 25.3694 12.5C25.3694 5.59644 19.7729 0 12.8694 0C5.96583 0 0.369385 5.59644 0.369385 12.5C0.369385 19.4036 5.96583 25 12.8694 25Z" fill="#D80027"/>
<path d="M7.21021 7.60742L8.28931 10.9277H11.7805L8.95825 12.9834L10.0374 16.3037L7.21021 14.2529L4.38306 16.3037L5.46704 12.9834L2.63989 10.9277H6.1311L7.21021 7.60742Z" fill="#FFDA44"/>
<path d="M15.1885 19.3604L14.3633 18.3447L13.1426 18.8184L13.8506 17.7197L13.0254 16.6992L14.29 17.0361L15.0029 15.9375L15.0713 17.2461L16.3408 17.583L15.1152 18.0518L15.1885 19.3604Z" fill="#FFDA44"/>
<path d="M16.8291 16.382L17.2197 15.132L16.1504 14.3752L17.459 14.3557L17.8447 13.1057L18.2695 14.3459L19.5781 14.3312L18.5283 15.1125L18.9482 16.3527L17.8789 15.5959L16.8291 16.382Z" fill="#FFDA44"/>
<path d="M19.0413 9.17486L18.4651 10.3516L19.4026 11.2647L18.1086 11.0792L17.5325 12.251L17.3079 10.962L16.009 10.7764L17.1711 10.1661L16.9465 8.87213L17.884 9.78522L19.0413 9.17486Z" fill="#FFDA44"/>
<path d="M15.2227 5.61041L15.125 6.91412L16.3408 7.40729L15.0664 7.71979L14.9736 9.02838L14.2852 7.9151L13.0107 8.2276L13.8555 7.22662L13.1621 6.11822L14.3779 6.61139L15.2227 5.61041Z" fill="#FFDA44"/>
</svg>
