<svg width="25" height="26" viewBox="0 0 25 26" fill="none" xmlns="http://www.w3.org/2000/svg">
<path d="M8.21621 23.4953C8.85646 24.1355 9.72094 24.4558 10.5854 24.4558C11.5138 24.4558 12.4423 24.1036 13.1467 23.3673L23.1036 13.4105C23.6478 12.8662 23.968 12.13 24 11.3615V3.83781C24 3.19756 23.7438 2.58921 23.2957 2.14099C22.8475 1.69277 22.2391 1.43665 21.5988 1.43665H14.0752C13.3067 1.46858 12.5704 1.75689 12.0262 2.33308L2.06934 12.3219C0.692781 13.6985 0.628693 15.9398 1.97331 17.2522L8.21621 23.4953ZM2.74143 12.9942L12.6983 3.03731C13.0824 2.65319 13.5947 2.42896 14.0748 2.42896H21.5985C21.9826 2.42896 22.3348 2.58908 22.6231 2.84523C22.9112 3.10138 23.0394 3.48548 23.0394 3.86984L23.0713 11.3615C23.0713 11.8738 22.8471 12.3861 22.463 12.7702L12.4741 22.7271C11.4495 23.7517 9.84871 23.7836 8.88841 22.8231L2.64538 16.5801C1.68485 15.6195 1.71704 14.0188 2.74141 12.9941L2.74143 12.9942Z" fill="white" stroke="white" stroke-width="1.3"/>
<path d="M15.0334 13.0749C15.8018 13.0749 16.6022 12.7868 17.1784 12.1784C18.3629 10.9939 18.3629 9.07291 17.1784 7.88839C15.9939 6.70387 14.0729 6.70387 12.8884 7.88839C11.7039 9.07291 11.7039 10.9939 12.8884 12.1784C13.4646 12.7868 14.2649 13.0749 15.0334 13.0749H15.0334ZM13.5605 8.56083C13.9768 8.14456 14.4889 7.95248 15.0334 7.95248C15.5776 7.95248 16.0899 8.14454 16.5062 8.56083C17.3066 9.36122 17.3066 10.7059 16.5062 11.5063C15.7058 12.3067 14.3612 12.3067 13.5608 11.5063C12.7602 10.7059 12.7602 9.36122 13.5605 8.56083H13.5605Z" fill="white" stroke="white" stroke-width="1.3"/>
</svg>
