<svg width="23" height="24" viewBox="0 0 23 24" fill="none" xmlns="http://www.w3.org/2000/svg">
<path d="M7.13286 7.48673H15.867C16.3374 7.48673 16.7361 7.88547 16.7361 8.35561C16.7361 8.82599 16.3374 9.22471 15.867 9.22471H7.13286C6.66246 9.22471 6.26377 8.82597 6.26377 8.35582C6.26377 7.88544 6.66249 7.48673 7.13286 7.48673Z" fill="white" stroke="white" stroke-width="0.3"/>
<path d="M7.13286 10.6601H15.867C16.3374 10.6601 16.7361 11.0588 16.7361 11.5292C16.7361 11.9996 16.3374 12.3983 15.867 12.3983H7.13286C6.66248 12.3983 6.26377 11.9996 6.26377 11.5292C6.26377 11.0588 6.66249 10.6601 7.13286 10.6601Z" fill="white" stroke="white" stroke-width="0.3"/>
<path d="M7.13286 14.1829H15.867C16.3374 14.1829 16.7361 14.5816 16.7361 15.0518C16.7361 15.5222 16.3374 15.9209 15.867 15.9209H7.13286C6.66246 15.9209 6.26377 15.5221 6.26377 15.052C6.26377 14.5816 6.66249 14.1829 7.13286 14.1829Z" fill="white" stroke="white" stroke-width="0.3"/>
<path d="M11.5 0.15C17.7639 0.15 22.8499 5.23593 22.85 11.4999L22.85 11.4999C22.85 12.9363 22.5917 14.3152 22.0744 15.6659C21.6715 16.6439 21.1541 17.5637 20.5223 18.3964L20.4697 18.4658L20.5038 18.5459L22.0178 22.0978L22.0177 22.0978L22.0192 22.1011C22.1397 22.3662 22.0933 22.714 21.893 22.9644L21.893 22.9644L21.8901 22.9681C21.7453 23.1613 21.4995 23.2866 21.224 23.2866C21.2165 23.2866 21.2056 23.2847 21.173 23.2766L21.1687 23.2755C21.1451 23.2696 21.1067 23.2599 21.0644 23.258L15.2524 22.2407L15.2145 22.2341L15.1781 22.2466C14.0004 22.6487 12.765 22.85 11.5 22.85C5.23606 22.85 0.15 17.764 0.15 11.5C0.15 5.23606 5.23606 0.15 11.5 0.15ZM20.4611 14.9905L20.4635 14.9844C20.9062 13.8893 21.112 12.7078 21.112 11.4998C21.112 6.20563 16.7941 1.88774 11.5 1.88774C6.20648 1.88774 1.88799 6.17635 1.88799 11.4712C1.88799 16.7653 6.20578 21.0832 11.5 21.0832C12.6477 21.0832 13.77 20.9071 14.8355 20.4942C14.9511 20.4652 15.047 20.4427 15.1392 20.4427C15.1467 20.4427 15.1577 20.4446 15.1903 20.4527L15.1946 20.4538C15.2182 20.4598 15.2568 20.4694 15.2991 20.4714L19.5393 21.1974L19.8107 21.2439L19.7026 20.9907L18.684 18.6044C18.6839 18.6043 18.6839 18.6041 18.6838 18.604C18.5598 18.306 18.6102 17.9606 18.8317 17.7143L18.8318 17.7144L18.8361 17.7092C19.5143 16.8836 20.0761 15.9677 20.4611 14.9905Z" fill="white" stroke="white" stroke-width="0.3"/>
</svg>
