<svg width="23" height="23" viewBox="0 0 23 23" fill="none" xmlns="http://www.w3.org/2000/svg">
<path d="M8.40486 9.12393H14.4563C15.013 9.12393 15.4648 8.75921 15.4648 8.30982V1.7969C15.4648 1.34751 15.013 0.982788 14.4563 0.982788H8.40486C7.84813 0.982788 7.3963 1.34751 7.3963 1.7969V8.30982C7.3963 8.75921 7.84813 9.12393 8.40486 9.12393ZM13.4477 7.4957H9.41343V2.61102H13.4477V7.4957Z" fill="white" stroke="white" stroke-width="0.3"/>
<mask id="path-2-inside-1_115_1449" fill="white">
<rect y="1.21771" width="22.8609" height="21.2667" rx="2"/>
</mask>
<rect y="1.21771" width="22.8609" height="21.2667" rx="2" stroke="white" stroke-width="4.4" mask="url(#path-2-inside-1_115_1449)"/>
<path d="M4.93056 18.2643H8.51658C9.01145 18.2643 9.41309 17.907 9.41309 17.4668C9.41309 17.0265 9.01145 16.6693 8.51658 16.6693H4.93056C4.43569 16.6693 4.03405 17.0265 4.03405 17.4668C4.03405 17.907 4.43569 18.2643 4.93056 18.2643Z" fill="white" stroke="white" stroke-width="0.3"/>
</svg>
