<svg width="59" height="61" viewBox="0 0 59 61" fill="none" xmlns="http://www.w3.org/2000/svg">
<rect y="0.673401" width="59" height="59.8612" rx="10" fill="#434C5D"/>
<path d="M38.0249 15.6734C39.1191 15.6734 40.1126 16.1204 40.8328 16.8406C41.553 17.5608 42 18.5554 42 19.6494V41.5586C42 42.6527 41.553 43.6472 40.8328 44.3674C40.1126 45.0875 39.118 45.5346 38.0249 45.5346H20.9751C19.8809 45.5346 18.8874 45.0875 18.1672 44.3674C17.447 43.6472 17 42.6526 17 41.5586V24.1834C17.002 23.985 17.0768 23.8105 17.2145 23.6737L25.0003 15.8879C25.136 15.7502 25.3116 15.6754 25.5089 15.6734L38.0249 15.6734ZM23.5327 30.2995C23.1397 30.2995 22.822 29.9815 22.822 29.5888C22.822 29.1958 23.14 28.8781 23.5327 28.8781H28.6836C29.0765 28.8781 29.3943 29.196 29.3943 29.5888C29.3943 29.9817 29.0763 30.2995 28.6836 30.2995H23.5327ZM23.5327 35.0508C23.1397 35.0508 22.822 34.7328 22.822 34.3401C22.822 33.9471 23.14 33.6294 23.5327 33.6294H35.4667C35.8597 33.6294 36.1774 33.9473 36.1774 34.3401C36.1774 34.733 35.8595 35.0508 35.4667 35.0508H23.5327ZM23.5327 39.8032C23.1397 39.8032 22.822 39.4853 22.822 39.0925C22.822 38.6996 23.14 38.3818 23.5327 38.3818H35.4667C35.8597 38.3818 36.1774 38.6998 36.1774 39.0925C36.1774 39.4855 35.8595 39.8032 35.4667 39.8032H23.5327ZM19.4266 23.473H23.3864C23.7736 23.473 24.1266 23.3135 24.3829 23.0584C24.639 22.8022 24.7974 22.4492 24.7974 22.062V18.1021L19.4263 23.4741L19.4266 23.473ZM26.22 17.0959V22.0617C26.22 22.8417 25.9011 23.5505 25.3877 24.0629C24.8743 24.5763 24.1665 24.8952 23.3865 24.8952H18.4207V41.5598C18.4207 42.261 18.7082 42.8997 19.1713 43.3629C19.6344 43.826 20.273 44.1135 20.9744 44.1135H38.0242C38.7254 44.1135 39.3642 43.826 39.8273 43.3629C40.2905 42.8997 40.5779 42.2612 40.5779 41.5598V19.6506C40.5779 18.9494 40.2905 18.3106 39.8273 17.8475C39.3642 17.3844 38.7257 17.0969 38.0242 17.0969H26.2201L26.22 17.0959Z" fill="white"/>
</svg>
