<svg width="61" height="61" viewBox="0 0 61 61" fill="none" xmlns="http://www.w3.org/2000/svg">
<rect y="0.0345459" width="60.8886" height="60" rx="10" fill="#434C5D"/>
<path d="M44.8886 20.6456V23.5345C44.8879 24.4919 44.507 25.41 43.8299 26.0868C43.153 26.7639 42.2349 27.1448 41.2776 27.1455H39.8332C39.4342 27.1455 39.1109 26.8222 39.1109 26.4235C39.1109 26.0245 39.4342 25.7012 39.8332 25.7012H41.2776C41.8521 25.7004 42.4028 25.4722 42.809 25.0659C43.2152 24.6596 43.4435 24.1091 43.4442 23.5345V20.6456C43.4435 20.0713 43.2152 19.5204 42.809 19.1144C42.4027 18.7082 41.8521 18.4796 41.2776 18.4789H19.611C19.0365 18.4796 18.4858 18.7081 18.0796 19.1144C17.6734 19.5204 17.4451 20.0713 17.4444 20.6456V23.5345C17.4451 24.1091 17.6734 24.6597 18.0796 25.0659C18.4859 25.4721 19.0365 25.7004 19.611 25.7012H21.0554C21.4544 25.7012 21.7777 26.0245 21.7777 26.4235C21.7777 26.8222 21.4544 27.1455 21.0554 27.1455H19.611C18.6537 27.1448 17.7355 26.7639 17.0587 26.0868C16.3816 25.41 16.0007 24.4918 16 23.5345V20.6456C16.0007 19.6882 16.3816 18.7703 17.0587 18.0932C17.7356 17.4161 18.6537 17.0355 19.611 17.0345H41.2776C42.2349 17.0355 43.1531 17.4161 43.8299 18.0932C44.507 18.7703 44.8878 19.6883 44.8886 20.6456Z" fill="white"/>
<path d="M39.8337 21.3681H21.0556C20.864 21.3681 20.6803 21.444 20.5448 21.5795C20.4094 21.7149 20.3333 21.8986 20.3335 22.0904V39.4237C20.3342 40.381 20.7151 41.2989 21.3922 41.976C22.0691 42.6531 22.9872 43.0337 23.9445 43.0347H36.9444C37.9018 43.0337 38.82 42.6531 39.4968 41.976C40.1739 41.2989 40.5547 40.3809 40.5555 39.4237V22.0904C40.5557 21.8986 40.4795 21.7149 40.3441 21.5795C40.2087 21.444 40.0249 21.3681 39.8334 21.3681H39.8337ZM39.1114 39.4238C39.1106 39.9981 38.8824 40.549 38.4761 40.9549C38.0698 41.3612 37.5192 41.5897 36.9447 41.5904H23.9448C23.3702 41.5897 22.8196 41.3612 22.4134 40.9549C22.0071 40.5489 21.7788 39.9981 21.7781 39.4238V22.8123H39.1114V39.4238Z" fill="white"/>
<path d="M33.8424 35.3003C33.98 35.4352 34.0581 35.6195 34.0591 35.8124C34.0601 36.0052 33.9839 36.1904 33.8475 36.3265C33.7111 36.4629 33.5259 36.5391 33.3332 36.5381C33.1404 36.5372 32.9559 36.4591 32.821 36.3215L30.4442 33.9446L28.0645 36.3243C27.9296 36.4619 27.7453 36.54 27.5524 36.541C27.3596 36.5419 27.1744 36.4658 27.0383 36.3294C26.9019 36.193 26.8257 36.008 26.8267 35.815C26.8276 35.6223 26.9057 35.4381 27.0433 35.3029L29.423 32.9234L27.0433 30.5437C26.7662 30.2608 26.7684 29.8076 27.0484 29.5276C27.3284 29.2476 27.7816 29.2454 28.0645 29.5226L30.4442 31.9022L32.821 29.5254V29.5252C33.1039 29.248 33.5571 29.2505 33.8371 29.5305C34.1171 29.8103 34.1193 30.2637 33.8422 30.5463L31.4654 32.9233L33.8424 35.3003Z" fill="white"/>
</svg>
