<svg width="60" height="61" viewBox="0 0 60 61" fill="none" xmlns="http://www.w3.org/2000/svg">
<rect y="0.673401" width="59.2467" height="60" rx="10" fill="#434C5D"/>
<path d="M45.3618 17.6738H25.3916C24.949 17.6738 24.562 18.0612 24.562 18.5035V21.9886H16.7615C14.7148 21.9886 13 23.6483 13 25.7501V38.5288C13 39.3033 13.6637 39.967 14.4382 39.967H15.4337C15.8212 42.0692 17.6463 43.6734 19.8594 43.6734C22.0719 43.6734 23.8975 42.0693 24.285 39.967H33.3573C33.7447 42.0692 35.5699 43.6734 37.7829 43.6734C39.9955 43.6734 41.8211 42.0693 42.2085 39.967H45.417C45.8596 39.967 46.2467 39.5796 46.2467 39.1374V18.5034C46.1915 18.0608 45.8041 17.6734 45.3619 17.6734L45.3618 17.6738ZM19.8597 42.0142C18.3108 42.0142 17.0385 40.7419 17.0385 39.193C17.0385 37.6441 18.3108 36.3718 19.8597 36.3718C21.4086 36.3718 22.6809 37.6441 22.6809 39.193C22.6257 40.7419 21.4086 42.0142 19.8597 42.0142ZM24.5616 38.3078H24.2298C23.8423 36.2611 22.0172 34.7123 19.8598 34.7123C17.7023 34.7123 15.8768 36.2612 15.4898 38.3078H14.6597V31.8355H24.5618L24.5616 38.3078ZM24.5616 30.1759H14.6595V25.8059C14.6595 24.644 15.5999 23.7037 16.7617 23.7037H24.5618L24.5616 30.1759ZM37.7275 42.0142C36.1786 42.0142 34.9064 40.7419 34.9064 39.193C34.9064 37.6441 36.1786 36.3718 37.7275 36.3718C39.2765 36.3718 40.5487 37.6441 40.5487 39.193C40.5487 40.7419 39.2765 42.0142 37.7275 42.0142ZM44.5317 38.3078H42.0975C41.7101 36.2611 39.885 34.7123 37.7275 34.7123C35.5701 34.7123 33.7446 36.2612 33.3575 38.3078H26.2212V19.3887L44.5318 19.3891L44.5317 38.3078Z" fill="white"/>
</svg>
