<svg width="59" height="61" viewBox="0 0 59 61" fill="none" xmlns="http://www.w3.org/2000/svg">
<rect width="59" height="60.6734" rx="10" fill="#434C5D"/>
<path d="M19.1886 12C17.9727 12 17 12.9727 17 14.1886V41.8153C17 43.0313 17.9727 44.0039 19.1886 44.0039H23.4689L23.3715 47.7492C23.3715 48.1384 23.566 48.4301 23.9066 48.576C24.004 48.6245 24.1498 48.6734 24.2472 48.6734C24.4416 48.6734 24.6849 48.576 24.8308 48.4301L27.0683 46.5332L29.257 48.4301C29.5002 48.6734 29.8894 48.7219 30.2296 48.6245C30.5703 48.4786 30.7647 48.138 30.7647 47.7492L30.6673 44.004H39.8114C41.0273 44.004 42 43.0313 42 41.8153V21.6312C42 21.4368 41.9026 21.2421 41.7567 21.0962L32.3695 12.1953C32.2236 12.0494 32.0289 12.0009 31.883 12.0009L19.1886 12ZM27.068 40.113C25.0252 40.113 23.3227 38.4105 23.3227 36.3678C23.3227 34.3251 25.0253 32.6225 27.068 32.6225C29.1107 32.6225 30.8132 34.3251 30.8132 36.3678C30.8132 38.4109 29.1107 40.113 27.068 40.113ZM27.7004 45.1228C27.3598 44.7822 26.8251 44.7822 26.4844 45.1228L24.8794 46.5331L25.0253 41.1827C25.6577 41.4745 26.3386 41.6204 27.0681 41.6204C27.7976 41.6204 28.4784 41.4745 29.1109 41.1827L29.2568 46.5331L27.7004 45.1228ZM32.5642 14.4319L39.4224 20.9008H32.5642V14.4319ZM40.541 22.3601V41.8155C40.541 42.2046 40.2003 42.5449 39.8115 42.5449H30.6188L30.5703 40.2104C31.6404 39.2377 32.2728 37.8758 32.2728 36.3681C32.2728 33.4985 29.9383 31.1636 27.0684 31.1636C24.1988 31.1636 21.8639 33.4982 21.8639 36.3681C21.8639 37.8758 22.5448 39.2866 23.5664 40.2104L23.5179 42.5449H19.189C18.7999 42.5449 18.4596 42.2043 18.4596 41.8155L18.4593 14.1888C18.4593 13.7997 18.7999 13.4594 19.1887 13.4594H31.1051V21.6305C31.1051 22.0196 31.4458 22.3599 31.8346 22.3599L40.541 22.3601Z" fill="white"/>
<path d="M21.3774 21.8737H28.9165V23.333H21.3774V21.8737Z" fill="white"/>
<path d="M21.3774 26.7862H33.7803V28.2454H21.3774V26.7862Z" fill="white"/>
</svg>
