<svg width="26" height="25" viewBox="0 0 26 25" fill="none" xmlns="http://www.w3.org/2000/svg">
<path d="M12.8693 24.9998C19.7728 24.9998 25.3692 19.4034 25.3692 12.4999C25.3692 5.59639 19.7728 0 12.8693 0C5.96577 0 0.369385 5.59639 0.369385 12.4999C0.369385 19.4034 5.96577 24.9998 12.8693 24.9998Z" fill="#F0F0F0"/>
<path d="M12.8692 0C7.91347 0 3.63148 2.88401 1.60962 7.06517H24.1287C22.1069 2.88401 17.8249 0 12.8692 0Z" fill="#FF9811"/>
<path d="M12.8692 25C17.8249 25 22.1069 22.116 24.1287 17.9348H1.60962C3.63148 22.116 7.91347 25 12.8692 25Z" fill="#6DA544"/>
<path d="M12.8692 16.8477C15.2705 16.8477 17.217 14.9011 17.217 12.4999C17.217 10.0987 15.2705 8.15216 12.8692 8.15216C10.468 8.15216 8.52148 10.0987 8.52148 12.4999C8.52148 14.9011 10.468 16.8477 12.8692 16.8477Z" fill="#0052B4"/>
<path d="M12.8692 15.2174C14.37 15.2174 15.5866 14.0008 15.5866 12.5C15.5866 10.9993 14.37 9.78265 12.8692 9.78265C11.3685 9.78265 10.1519 10.9993 10.1519 12.5C10.1519 14.0008 11.3685 15.2174 12.8692 15.2174Z" fill="#F0F0F0"/>
<path d="M12.8693 9.14685L13.7076 11.0481L15.7732 10.8234L14.5459 12.5L15.7732 14.1766L13.7076 13.952L12.8693 15.8532L12.0309 13.952L9.96533 14.1766L11.1927 12.5L9.96533 10.8234L12.0309 11.0481L12.8693 9.14685Z" fill="#0052B4"/>
</svg>
