<svg width="22" height="24" viewBox="0 0 22 24" fill="none" xmlns="http://www.w3.org/2000/svg">
<path d="M21.9989 4.03727C22.0127 2.7188 21.3577 1.48273 20.2585 0.754615L20.1028 0.656145V0.655573C19.2406 0.0813493 18.1861 -0.12703 17.1698 0.0756333C16.1542 0.278869 15.2606 0.877141 14.6858 1.73938L14.5707 1.91171C12.4588 1.15888 10.1648 1.07872 8.00526 1.68157C7.42188 0.840559 6.53218 0.262337 5.52693 0.0699911C4.52161 -0.121798 3.48139 0.0888833 2.62943 0.65566L2.47371 0.762145L2.47314 0.762718C1.55485 1.37987 0.941141 2.35715 0.784761 3.45283C0.628469 4.54803 0.943912 5.65812 1.65268 6.50773C-0.384804 9.81853 -0.502783 13.964 1.34238 17.3853C3.18758 20.8066 6.71587 22.9855 10.6015 23.1017C14.4871 23.2185 18.1402 21.2554 20.1868 17.9504C22.2341 14.6459 22.3645 10.5011 20.5292 7.07404C21.4555 6.33781 21.9959 5.22035 21.9987 4.03746L21.9989 4.03727ZM19.9631 6.07256C19.6768 5.65177 19.3614 5.25158 19.0196 4.87431C19.4564 4.26287 20.1228 3.85412 20.866 3.7419V4.0207C20.866 4.80101 20.5385 5.5458 19.9631 6.07254L19.9631 6.07256ZM17.3857 1.14784L17.3862 1.14841C18.1145 1.00185 18.8707 1.15242 19.4873 1.56691L19.643 1.66538C20.0323 1.92186 20.3512 2.27166 20.5705 2.68272C19.6442 2.85103 18.81 3.34968 18.2232 4.08649C17.4429 3.37543 16.5641 2.78119 15.6131 2.32205C16.0241 1.70833 16.6619 1.28296 17.3862 1.13983L17.3857 1.14784ZM3.12182 1.66537L3.27754 1.55889V1.55831C3.84089 1.18275 4.52159 1.0236 5.19309 1.11119C5.86463 1.19878 6.48179 1.52682 6.93012 2.03463C5.92595 2.44053 4.98819 2.99358 4.14782 3.67596C3.60509 3.17445 2.93011 2.8384 2.20252 2.70729C2.41606 2.28821 2.73209 1.92926 3.12196 1.66533L3.12182 1.66537ZM1.89095 3.7499H1.89038C2.41536 3.82318 2.90828 4.0453 3.31018 4.38996C2.95465 4.73918 2.62261 5.11245 2.31747 5.50634C1.98371 4.98193 1.8337 4.36076 1.89038 3.7419L1.89095 3.7499ZM6.31473 17.3331H6.31416C6.31129 16.4898 6.53857 15.6614 6.97311 14.9377C7.40706 14.2141 8.03051 13.6238 8.77653 13.2294C8.72672 13.558 8.79027 13.8941 8.95744 14.1815L9.69598 15.4616V15.4622C9.95703 15.9127 10.4391 16.1904 10.9601 16.1904C11.481 16.1904 11.9625 15.9127 12.2236 15.4622L12.9621 14.1821L12.9627 14.1815C13.1293 13.8941 13.1928 13.558 13.143 13.2294C14.1031 13.7458 14.8497 14.5851 15.2498 15.599C15.6506 16.6129 15.6786 17.7361 15.3294 18.769C14.9807 19.8018 14.2771 20.6776 13.3439 21.241C12.4108 21.8049 11.3081 22.0196 10.2319 21.8473C9.155 21.6755 8.17433 21.1276 7.46322 20.3009C6.75216 19.4748 6.35714 18.4232 6.34741 17.3331L6.31473 17.3331ZM10.1962 13.1556H11.6739C11.7981 13.1573 11.9126 13.2243 11.975 13.3319C12.0374 13.4395 12.0385 13.5723 11.9773 13.6811L11.2387 14.9612C11.1752 15.0689 11.0595 15.1341 10.9353 15.1341C10.8105 15.1341 10.6949 15.0689 10.6313 14.9612L9.89279 13.6811C9.83211 13.5723 9.83268 13.4395 9.89509 13.3319C9.95749 13.2242 10.072 13.1573 10.1962 13.1556H10.1962ZM15.449 20.8626C16.3432 19.7267 16.7766 18.296 16.6626 16.855C16.5481 15.4146 15.8955 14.0698 14.834 13.0892C13.7726 12.1079 12.3803 11.5635 10.9352 11.5635C9.48965 11.5635 8.09737 12.1079 7.03598 13.0892C5.97456 14.0699 5.32196 15.4146 5.20793 16.855C5.09401 18.296 5.52682 19.7267 6.42106 20.8626C3.80759 19.5046 1.94408 17.0429 1.34699 14.1586C0.749877 11.2749 1.48268 8.27553 3.34212 5.99183C5.20168 3.70754 7.98969 2.3822 10.9353 2.3822C13.8802 2.3822 16.6688 3.70754 18.5284 5.99183C20.3874 8.27553 21.1202 11.2749 20.5229 14.1586C19.9258 17.0429 18.0623 19.5047 15.4489 20.8626H15.449Z" fill="#1AB248"/>
<path d="M5.46747 10.3906C5.1005 10.4301 4.82227 10.7398 4.82227 11.1085C4.82227 11.4778 5.1005 11.7875 5.46747 11.827C5.83444 11.7875 6.11267 11.4778 6.11267 11.1085C6.11267 10.7398 5.83444 10.4301 5.46747 10.3906Z" fill="#1AB248"/>
<path d="M16.3841 10.3906C16.0171 10.4301 15.7383 10.7398 15.7383 11.1085C15.7383 11.4778 16.0171 11.7875 16.3841 11.827C16.751 11.7875 17.0293 11.4778 17.0293 11.1085C17.0293 10.7398 16.751 10.4301 16.3841 10.3906Z" fill="#1AB248"/>
</svg>
