<svg width="25" height="25" viewBox="0 0 25 25" fill="none" xmlns="http://www.w3.org/2000/svg">
<path d="M24.7826 7.86471L18.4887 3.11048C18.394 3.0388 18.2784 3.00003 18.1597 3.00003H14.8092C14.6644 3.00003 14.5254 3.05763 14.423 3.16004C14.3206 3.26244 14.263 3.40141 14.2632 3.54623C14.2937 3.97303 14.1442 4.39306 13.8508 4.70427C13.4753 5.01184 13.0038 5.17787 12.5185 5.17365C12.5109 5.17347 12.5043 5.17731 12.4968 5.17731C12.4906 5.17713 12.4847 5.17384 12.4787 5.17402H12.4785C11.9961 5.17896 11.5273 5.01438 11.1537 4.70883C10.8571 4.39742 10.7057 3.97519 10.7366 3.5462C10.7367 3.40138 10.6791 3.2624 10.5767 3.16C10.4743 3.0576 10.3354 3 10.1905 3H6.84001C6.72133 3 6.60577 3.03877 6.51105 3.11045L0.21717 7.86468C-0.0194503 8.04315 -0.0704658 8.37797 0.102519 8.61858L3.54358 13.4182C3.63062 13.5398 3.76356 13.6203 3.91167 13.6409C4.05979 13.6611 4.20974 13.6203 4.32713 13.5278L6.29417 11.9669V22.3371C6.29399 22.4819 6.35159 22.6209 6.45399 22.7233C6.55639 22.8257 6.69536 22.8833 6.84019 22.8833H18.1598C18.3046 22.8833 18.4436 22.8257 18.546 22.7233C18.6484 22.6209 18.706 22.4819 18.7058 22.3371V11.9673L20.6729 13.5282V13.528C20.7899 13.6211 20.94 13.6619 21.0881 13.6412C21.2361 13.6206 21.3692 13.5399 21.4564 13.4185L24.8975 8.61887C25.0705 8.37823 25.0195 8.04341 24.7828 7.86496L24.7826 7.86471ZM20.9025 12.3157L18.4993 10.4085C18.3351 10.2783 18.1109 10.2534 17.9222 10.3445C17.7335 10.4357 17.6136 10.6266 17.6134 10.8362V21.7907H7.38589V10.8362C7.3857 10.6266 7.26575 10.4357 7.07704 10.3445C6.88833 10.2534 6.66414 10.2783 6.49994 10.4085L4.0968 12.3157L1.29996 8.41512L7.02273 4.0925H9.68573C9.75997 4.62644 10.0101 5.12054 10.3967 5.49649C10.9848 5.99312 11.7298 6.26561 12.4996 6.26561C13.2694 6.26561 14.0144 5.99315 14.6025 5.49649C14.9891 5.12053 15.2392 4.62644 15.3135 4.0925H17.9765L23.6992 8.41512L20.9025 12.3157Z" fill="#1AB248"/>
</svg>
