<svg width="25" height="17" viewBox="0 0 25 17" fill="none" xmlns="http://www.w3.org/2000/svg">
<path d="M16.0144 5.67852L19.3629 11.4131H19.3627C19.5206 11.6838 19.868 11.7752 20.1387 11.6173C20.4094 11.4595 20.5008 11.112 20.3429 10.8413L15.294 2.19468H17.0795C17.23 2.19468 17.3743 2.13484 17.4807 2.02846C17.5871 1.92208 17.6469 1.77771 17.6468 1.62725V0.567235C17.6468 0.253982 17.3928 0 17.0795 0C16.7661 0 16.5121 0.253987 16.5121 0.567235V1.05982H14.3058C14.1026 1.05982 13.9151 1.16848 13.8138 1.34477C13.7126 1.52087 13.7133 1.73762 13.8157 1.91317L15.026 3.98589H9.05118L8.70829 3.38198H9.72668C10.0399 3.38198 10.2939 3.128 10.2939 2.81455C10.2939 2.5013 10.0399 2.24732 9.72668 2.24732H5.86788C5.55444 2.24732 5.30045 2.5013 5.30045 2.81455C5.30045 3.128 5.55444 3.38198 5.86788 3.38198H7.40317L7.95596 4.35558L4.31582 10.6733C4.21476 10.8488 4.21514 11.0648 4.31639 11.2401C4.41783 11.4155 4.60495 11.5235 4.80747 11.5237H12.356C12.4278 11.5266 12.4992 11.5112 12.5634 11.4791C12.5881 11.4711 12.6123 11.4614 12.6356 11.45L12.6377 11.4481C12.6947 11.4139 12.7452 11.3699 12.787 11.3182C12.7981 11.3051 12.8077 11.2922 12.8174 11.2781C12.8273 11.2639 12.84 11.2523 12.8486 11.2373L16.0144 5.67852ZM15.0262 5.12057L12.3566 9.80819L9.69513 5.12076L15.0262 5.12057ZM8.60589 5.5005L11.3809 10.3889H5.78926L8.60589 5.5005Z" fill="#1AB248"/>
<path d="M9.7323 11.6451C9.42778 11.5735 9.12231 11.761 9.04859 12.0651C8.81075 13.0541 8.2063 13.9159 7.35734 14.4761C6.50838 15.0365 5.47818 15.2534 4.47535 15.083C3.47253 14.9128 2.57188 14.368 1.95548 13.5587C1.33903 12.7497 1.05278 11.7366 1.15496 10.7245C1.25697 9.7125 1.73965 8.77693 2.50525 8.10714C3.27081 7.43734 4.26206 7.0834 5.27874 7.11666C5.43034 7.12654 5.57927 7.07316 5.69021 6.96944C5.80114 6.86572 5.86421 6.72058 5.8644 6.5688C5.86953 6.41835 5.81445 6.27207 5.71167 6.16227C5.60871 6.05228 5.46624 5.98789 5.31578 5.98314C3.47806 5.92273 1.74766 6.84731 0.776543 8.40862C-0.194769 9.96993 -0.259157 11.9308 0.607471 13.5523C1.47389 15.1741 3.1399 16.2103 4.97762 16.2709C5.03385 16.2732 5.09008 16.2738 5.14612 16.2738V16.2736C6.3015 16.2711 7.42284 15.8809 8.33049 15.1657C9.23815 14.4507 9.87964 13.4517 10.1523 12.3286C10.225 12.0239 10.037 11.7178 9.73226 11.6449L9.7323 11.6451Z" fill="#1AB248"/>
<path d="M21.056 6.0588C20.7511 5.98585 20.4451 6.17392 20.3723 6.47862C20.2994 6.78352 20.4874 7.08953 20.7921 7.16248C21.7813 7.40012 22.6431 8.00457 23.2036 8.85373C23.7638 9.70268 23.9807 10.7329 23.8105 11.7357C23.6401 12.7387 23.0953 13.6394 22.2862 14.2558C21.4769 14.8724 20.4638 15.1585 19.4517 15.0563C18.4396 14.9543 17.504 14.4716 16.8342 13.706C16.1644 12.9405 15.8104 11.949 15.8439 10.9323C15.853 10.62 15.6078 10.359 15.2955 10.3487C14.9832 10.3383 14.7214 10.5824 14.7096 10.8945C14.6663 12.2585 15.1659 13.5839 16.0986 14.5801C17.0314 15.5762 18.321 16.1617 19.6848 16.2081C19.7422 16.2104 19.799 16.2115 19.856 16.2115H19.8561C21.551 16.2106 23.1369 15.3753 24.0964 13.9783C25.056 12.5811 25.2664 10.8011 24.6588 9.21886C24.0513 7.63645 22.7039 6.45466 21.0559 6.0588L21.056 6.0588Z" fill="#1AB248"/>
</svg>
