<svg width="27" height="22" viewBox="0 0 27 22" fill="none" xmlns="http://www.w3.org/2000/svg">
<path d="M1.88028 17.5845C1.63368 17.5845 1.42245 17.4789 1.2466 17.3379C1.07049 17.1618 1 16.9506 1 16.7042V1.88028C1 1.63368 1.10561 1.42245 1.2466 1.2466C1.4227 1.07049 1.63393 1 1.88028 1H25.1197C25.3663 1 25.5775 1.10561 25.7534 1.2466C25.9295 1.42271 26 1.63393 26 1.88028V16.7042C26 16.9508 25.8944 17.162 25.7534 17.3379C25.5773 17.514 25.3661 17.5845 25.1197 17.5845H1.88028ZM2.5 16H24.5V2.50025L2.5 2.5V16Z" fill="#1AB248" stroke="#F8FAFF" stroke-width="0.4"/>
<path d="M9.09903 20.8944C8.60609 20.8944 8.21875 20.507 8.21875 20.0141C8.21875 19.5211 8.60609 19.1338 9.09903 19.1338H17.9019C18.3948 19.1338 18.7821 19.5211 18.7821 20.0141C18.7821 20.507 18.3948 20.8944 17.9019 20.8944H9.09903Z" fill="#1AB248" stroke="#F8FAFF" stroke-width="0.4"/>
</svg>
