<svg width="25" height="25" viewBox="0 0 25 25" fill="none" xmlns="http://www.w3.org/2000/svg">
<path d="M19.0891 10.7749V0.610871C19.0891 0.448897 19.0249 0.293472 18.9104 0.178947C18.7956 0.064422 18.6404 0 18.4782 0H6.14407C5.9819 0 5.82668 0.064422 5.71195 0.178947C5.59742 0.293472 5.5332 0.448897 5.5332 0.610871V10.7749C5.53545 12.4658 6.1692 14.0947 7.31001 15.3429C8.45076 16.591 10.0165 17.3679 11.7002 17.5219V23.7783H6.14434C5.8069 23.7783 5.53347 24.0517 5.53347 24.3891C5.53347 24.7264 5.8069 25 6.14434 25H18.4785C18.8159 25 19.0894 24.7264 19.0894 24.3891C19.0894 24.0517 18.8159 23.7783 18.4785 23.7783H12.9227V17.5219C14.6064 17.3679 16.1721 16.591 17.3128 15.3429C18.4536 14.0947 19.0869 12.4658 19.0891 10.7749ZM6.75494 10.7749V1.22185H17.8677V10.7749C17.8677 12.7599 16.8086 14.5944 15.0894 15.5868C13.3703 16.5793 11.2524 16.5793 9.5336 15.5868C7.81449 14.5944 6.75494 12.7599 6.75494 10.7749Z" fill="#1AB248"/>
</svg>
