<svg width="27" height="25" viewBox="0 0 27 25" fill="none" xmlns="http://www.w3.org/2000/svg">
<path d="M22.5809 5.57144H17.0717V2.89286C17.0717 2.65609 16.9776 2.42889 16.8102 2.26148C16.6428 2.09407 16.4156 2 16.1788 2H10.8217C10.5849 2 10.3577 2.09407 10.1903 2.26148C10.0229 2.42889 9.92881 2.65609 9.92881 2.89286V5.57144H4.41961C3.51338 5.57383 2.64506 5.93477 2.00429 6.57573C1.36337 7.2165 1.0024 8.08482 1 8.99105V20.0089C1.00239 20.9152 1.36332 21.7835 2.00429 22.4243C2.64506 23.0652 3.51338 23.4262 4.41961 23.4286H22.5804C23.4866 23.4262 24.3549 23.0652 24.9957 22.4243C25.6366 21.7835 25.9976 20.9152 26 20.0089V8.99105C25.9976 8.08482 25.6367 7.2165 24.9957 6.57573C24.3549 5.93481 23.4866 5.57384 22.5804 5.57144H22.5809ZM19.7504 7.35716V21.6429H7.25038V7.35716H19.7504ZM11.7147 3.78572H15.2861V5.57144H11.7147V3.78572ZM2.78608 20.0093V8.99135C2.78608 8.55808 2.95827 8.14252 3.2646 7.83599C3.57112 7.52967 3.98664 7.35748 4.41996 7.35748H5.46471V21.6432H4.41996C3.98668 21.6432 3.57113 21.4711 3.2646 21.1647C2.95827 20.8582 2.78608 20.4427 2.78608 20.0094V20.0093ZM24.2147 20.0093C24.2147 20.4425 24.0425 20.8581 23.7362 21.1646C23.4297 21.4709 23.0142 21.6431 22.5809 21.6431H21.5361V7.35736H22.5809C23.0141 7.35736 23.4297 7.52956 23.7362 7.83588C24.0425 8.1424 24.2147 8.55792 24.2147 8.99124V20.0093Z" fill="#1AB248" stroke="#F8FAFF" stroke-width="0.7"/>
</svg>
