<svg width="21" height="16" viewBox="0 0 21 16" fill="none" xmlns="http://www.w3.org/2000/svg">
<path d="M6.91728 15.9493C6.78222 15.9493 6.64107 15.92 6.51181 15.8552C6.17692 15.6966 5.97709 15.3734 5.97709 15.0033L5.98871 13.1349C4.4845 12.9644 3.08625 12.2772 2.0168 11.1726C0.82421 9.9387 0.166016 8.32296 0.166016 6.61338C0.166016 2.99406 3.10975 0.050621 6.72877 0.050621H14.4372C16.1822 0.050621 17.8274 0.732314 19.0728 1.97777C19.7133 2.61821 20.2009 3.35854 20.5358 4.19274C20.8472 4.96246 21 5.77919 21 6.61338C21 10.2327 18.0562 13.1761 14.4372 13.1761H10.7592C10.6828 13.1761 10.6064 13.2055 10.5478 13.2525L7.5105 15.7379C7.34 15.8791 7.12856 15.9494 6.91711 15.9494L6.91728 15.9493ZM6.72907 1.52514C3.92067 1.52514 1.63513 3.81067 1.63513 6.61907C1.63513 7.94089 2.14633 9.19831 3.07458 10.1562C3.99703 11.1138 5.23089 11.6662 6.5469 11.7132C7.0639 11.731 7.46355 12.1539 7.46355 12.6651L7.45775 13.8931L9.61985 12.1304C9.94313 11.8661 10.3483 11.7249 10.7657 11.7249H14.4437C17.2521 11.7249 19.5376 9.43937 19.5376 6.63096C19.5376 5.98471 19.4142 5.35004 19.1792 4.75669C18.9207 4.11043 18.5387 3.53443 18.0453 3.03521C17.0818 2.07179 15.8009 1.5371 14.4495 1.5371H6.72919L6.72907 1.52514Z" fill="white"/>
<path d="M14.8079 7.80665C15.4132 7.80665 15.9009 7.31898 15.9009 6.7137C15.9009 6.1084 15.4132 5.62075 14.8079 5.62075C14.2026 5.62075 13.715 6.10842 13.715 6.7137C13.7208 7.319 14.2084 7.80665 14.8079 7.80665Z" fill="white"/>
<path d="M10.5191 7.80665C11.1244 7.80665 11.612 7.31898 11.612 6.7137C11.612 6.1084 11.1244 5.62075 10.5191 5.62075C9.9199 5.62075 9.42615 6.10842 9.42615 6.7137C9.42615 7.319 9.91382 7.80665 10.5191 7.80665Z" fill="white"/>
<path d="M6.2243 7.80665C6.8235 7.80665 7.31725 7.31898 7.31725 6.7137C7.31725 6.1084 6.82958 5.62075 6.2243 5.62075C5.61902 5.62075 5.13135 6.10842 5.13135 6.7137C5.13716 7.319 5.62482 7.80665 6.2243 7.80665Z" fill="white"/>
</svg>
