<svg width="21" height="17" viewBox="0 0 21 17" fill="none" xmlns="http://www.w3.org/2000/svg">
<path d="M6.75127 16.4493C6.61621 16.4493 6.47505 16.42 6.3458 16.3552C6.01091 16.1966 5.81108 15.8734 5.81108 15.5033L5.8227 13.6348C4.31849 13.4643 2.92023 12.7772 1.85078 11.6725C0.658194 10.4387 0 8.82294 0 7.11336C0 3.49403 2.94373 0.550598 6.56276 0.550598H14.2712C16.0162 0.550598 17.6613 1.23229 18.9068 2.47774C19.5472 3.11819 20.0349 3.85852 20.3698 4.69271C20.6812 5.46244 20.834 6.27916 20.834 7.11336C20.834 10.7327 17.8902 13.6761 14.2712 13.6761H10.5932C10.5168 13.6761 10.4404 13.7054 10.3818 13.7525L7.34448 16.2379C7.17399 16.3791 6.96254 16.4494 6.75109 16.4494L6.75127 16.4493ZM6.56306 2.02511C3.75465 2.02511 1.46912 4.31065 1.46912 7.11905C1.46912 8.44087 1.98031 9.69829 2.90856 10.6561C3.83102 11.6138 5.06487 12.1662 6.38089 12.2132C6.89789 12.2309 7.29754 12.6538 7.29754 13.165L7.29173 14.3931L9.45384 12.6303C9.77711 12.366 10.1823 12.2249 10.5997 12.2249H14.2776C17.086 12.2249 19.3716 9.93934 19.3716 7.13094C19.3716 6.48469 19.2481 5.85002 19.0132 5.25666C18.7547 4.61041 18.3727 4.03441 17.8792 3.53519C16.9158 2.57177 15.6349 2.03708 14.2835 2.03708H6.56317L6.56306 2.02511Z" fill="#1AB248"/>
<path d="M14.6418 8.30663C15.2471 8.30663 15.7347 7.81896 15.7347 7.21368C15.7347 6.60838 15.2471 6.12073 14.6418 6.12073C14.0365 6.12073 13.5488 6.60839 13.5488 7.21368C13.5546 7.81897 14.0423 8.30663 14.6418 8.30663Z" fill="#1AB248"/>
<path d="M10.3527 8.30663C10.958 8.30663 11.4457 7.81896 11.4457 7.21368C11.4457 6.60838 10.958 6.12073 10.3527 6.12073C9.75352 6.12073 9.25977 6.60839 9.25977 7.21368C9.25977 7.81897 9.74743 8.30663 10.3527 8.30663Z" fill="#1AB248"/>
<path d="M6.05779 8.30663C6.65699 8.30663 7.15074 7.81896 7.15074 7.21368C7.15074 6.60838 6.66308 6.12073 6.05779 6.12073C5.45251 6.12073 4.96484 6.60839 4.96484 7.21368C4.97065 7.81897 5.45832 8.30663 6.05779 8.30663Z" fill="#1AB248"/>
</svg>
