<svg width="85" height="85" viewBox="0 0 85 85" fill="none" xmlns="http://www.w3.org/2000/svg">
<rect width="85" height="85" rx="19" fill="#2259F4"/>
<mask id="mask0_115_3620" style="mask-type:alpha" maskUnits="userSpaceOnUse" x="0" y="0" width="85" height="85">
<rect width="85" height="85" rx="19" fill="#2259F4"/>
</mask>
<g mask="url(#mask0_115_3620)">
<path d="M41 37L35.5 85L34.5 88.5H75.5L88 84.5V67L59 35L53.5 31L43.5 33L41 37Z" fill="#F91155"/>
<path d="M78.6521 22.5254C78.4073 20.2035 81.9712 18.9812 83.1616 21.0766C84.0112 22.9855 84.3568 25.0785 85 27.0559V37.823C80.56 35.8361 76.0601 33.9791 71.6105 32.0088C72.3713 34.7177 73.2833 37.4006 73.7369 40.1708C74.1041 42.0302 71.5409 43.5899 70.0625 42.3487C68.7977 41.4261 68.6922 39.7366 68.2674 38.3657C67.1058 33.6157 65.5098 28.9696 64.5714 24.1677C66.0618 24.0898 67.3722 24.8732 68.6898 25.4396C72.7913 27.1998 76.8809 28.9885 80.9848 30.7417C80.032 28.0588 79.3216 25.2862 78.6521 22.5254ZM39.722 32.4005C43.9964 28.6487 50.1307 27.0182 55.7347 28.1791C59.1738 28.9554 62.7618 31.0484 63.7314 34.595C64.3482 36.3883 64.0266 38.3138 63.429 40.0646C62.0922 42.9717 59.6418 45.2889 56.8123 46.8014C51.6427 49.5173 45.002 50.1167 39.8372 47.0468C37.4996 45.5814 35.6325 43.0448 35.8605 40.2038C35.6157 37.1269 37.4996 34.3779 39.722 32.4005ZM40.4684 40.1849C40.862 41.2916 41.4092 42.4195 42.5276 42.9717C46.07 44.9302 50.4931 44.3639 54.0403 42.7121C56.3443 41.5795 58.6482 39.7413 59.1546 37.1269C59.3994 35.7889 58.4322 34.6233 57.3259 33.9791C55.0459 32.5444 52.1947 32.7379 49.6099 32.9668C45.662 33.7007 41.4092 36.0391 40.4684 40.1849ZM17.0806 36.9121C21.4726 35.7653 25.8718 34.628 30.2493 33.4222C31.0293 33.2311 31.8357 33.25 32.6301 33.25C32.3565 34.9725 31.4781 36.5133 30.8733 38.1391C29.3205 42.0561 27.7197 45.9566 26.1238 49.8618C28.5933 49.1421 31.1037 48.5853 33.5685 47.8609C34.6749 47.5069 35.9037 47.8373 36.5829 48.774C37.1397 50.0388 36.9884 51.969 35.4261 52.4338C30.0669 53.9275 24.6598 55.2937 19.2718 56.7001C18.3694 56.9691 18.3598 55.794 18.6526 55.2513C20.731 50.1308 22.7566 44.9915 24.9094 39.9018C22.7662 40.52 20.6038 41.058 18.4486 41.6479C16.7878 42.1718 15.4943 40.6923 15.1823 39.2387C15.5447 38.2878 15.9742 37.2189 17.0806 36.9121ZM0 41.3412C2.85597 40.0269 6.28074 39.9679 9.07191 41.471C13.0151 43.4129 15.3983 47.934 14.7047 52.2238C14.2751 56.4028 10.7663 60.1074 6.54474 60.7893C4.32956 61.3722 2.09278 60.6336 0 59.9351V53.5098C1.41119 55.4967 4.14716 56.752 6.53034 55.7397C9.31671 54.8053 10.7807 51.3366 9.56151 48.7198C8.62312 46.1006 5.29915 44.4347 2.64957 45.605C1.55759 46.0227 0.693593 46.8344 0 47.7452V41.3412Z" fill="white"/>
</g>
</svg>
