<svg width="25" height="26" viewBox="0 0 25 26" fill="none" xmlns="http://www.w3.org/2000/svg">
<path d="M2.96112 0.500496H22.0373C22.7898 0.500496 23.5704 0.70236 24.1216 1.24231C24.7449 1.79638 25.0046 2.63984 24.9983 3.45436V9.21386C24.8091 8.62238 24.7075 7.99632 24.4576 7.42531C24.1075 6.79854 23.0594 7.16415 23.1314 7.85868C23.3283 8.68449 23.5372 9.51383 23.8174 10.3163C22.6105 9.79192 21.4078 9.25691 20.2015 8.73037C19.814 8.56097 19.4286 8.32664 18.9903 8.34993C19.2663 9.78628 19.7357 11.176 20.0773 12.5969C20.2022 13.0069 20.2333 13.5123 20.6052 13.7883C21.04 14.1595 21.7938 13.693 21.6858 13.1368C21.5524 12.3082 21.2842 11.5057 21.0605 10.6954C22.3691 11.2847 23.6925 11.8402 24.9983 12.4345V19.9438C22.8956 17.6519 20.7648 15.387 18.6543 13.105C18.8301 12.5813 18.9247 12.0054 18.7433 11.469C18.4581 10.4081 17.4029 9.78204 16.3915 9.54983C14.7434 9.20256 12.9393 9.69029 11.6822 10.8125C11.0287 11.404 10.4746 12.2263 10.5466 13.1467C10.4795 13.9965 11.0287 14.7553 11.7161 15.1936C11.3477 18.6295 10.9644 22.064 10.591 25.4986H2.96253C2.17625 25.5028 1.36102 25.272 0.806954 24.6904C0.226769 24.1363 -0.00403472 23.3253 0.000200209 22.5405V19.0488C0.615676 19.2577 1.2735 19.4786 1.92497 19.3043C3.16651 19.1003 4.19842 17.9922 4.32477 16.7421C4.52875 15.459 3.82787 14.1066 2.6682 13.5257C1.84733 13.0761 0.840127 13.0938 0.000200209 13.4869V3.46142C-0.00826964 2.64196 0.251473 1.79497 0.879653 1.23949C1.42949 0.70236 2.20871 0.499084 2.96112 0.500496ZM5.02353 12.1621C4.69815 12.2538 4.5718 12.5736 4.46522 12.858C4.55698 13.2928 4.93742 13.7353 5.42585 13.5787C6.05967 13.4022 6.69562 13.2413 7.32592 13.0563C6.6928 14.5788 6.09708 16.1161 5.48584 17.6477C5.39973 17.8101 5.40255 18.1616 5.66794 18.0811C7.25251 17.6604 8.84273 17.2517 10.4188 16.805C10.8783 16.6659 10.9228 16.0886 10.759 15.7102C10.5593 15.43 10.1979 15.3312 9.87252 15.4371C9.14764 15.6538 8.40935 15.8203 7.68306 16.0356C8.15243 14.8675 8.62322 13.7008 9.07988 12.5291C9.25775 12.0428 9.51608 11.5819 9.59654 11.0666C9.36292 11.0666 9.12576 11.061 8.89637 11.1182C7.60895 11.4788 6.31518 11.819 5.02353 12.1621ZM0.779427 14.7623C1.55865 14.4122 2.53622 14.9105 2.81219 15.694C3.17075 16.4768 2.7402 17.5143 1.92074 17.7938C1.21986 18.0966 0.415223 17.7211 0.000200209 17.1268V15.4025C0.204183 15.13 0.458278 14.8872 0.779427 14.7623Z" fill="#005BFF"/>
<path d="M23.1314 7.85868C23.0594 7.16415 24.1076 6.79853 24.4576 7.4253C24.7075 7.99631 24.8091 8.62237 24.9983 9.21385V12.4345C23.6925 11.8402 22.3691 11.2847 21.0605 10.6954C21.2843 11.5057 21.5525 12.3082 21.6859 13.1368C21.7939 13.693 21.0401 14.1595 20.6053 13.7883C20.2333 13.5123 20.2023 13.0069 20.0773 12.5969C19.7357 11.176 19.2663 9.78627 18.9904 8.34993C19.4287 8.32663 19.8141 8.56097 20.2015 8.73036C21.4078 9.25691 22.6105 9.79192 23.8175 10.3163C23.5373 9.51383 23.3283 8.68449 23.1314 7.85868ZM11.6823 10.8125C12.9394 9.69028 14.7434 9.20256 16.3915 9.54982C17.403 9.78204 18.4582 10.4081 18.7433 11.469C18.9247 12.0054 18.8301 12.5813 18.6544 13.105C18.2612 13.9746 17.5406 14.6677 16.7084 15.1202C15.1881 15.9326 13.2351 16.1118 11.7162 15.1936C11.0287 14.7553 10.4796 13.9965 10.5466 13.1467C10.4746 12.2263 11.0287 11.404 11.6823 10.8125ZM11.9018 13.141C12.0176 13.4721 12.1785 13.8095 12.5074 13.9746C13.5492 14.5604 14.85 14.391 15.8932 13.897C16.5708 13.5582 17.2484 13.0083 17.3973 12.2263C17.4693 11.8261 17.1849 11.4774 16.8595 11.2847C16.189 10.8556 15.3504 10.9135 14.5903 10.9819C13.4292 11.2014 12.1785 11.9009 11.9018 13.141ZM5.02357 12.1621C6.31522 11.819 7.60899 11.4788 8.89641 11.1182C9.1258 11.061 9.36296 11.0666 9.59659 11.0666C9.51612 11.5819 9.25779 12.0428 9.07993 12.5291C8.62326 13.7008 8.15248 14.8675 7.68311 16.0356C8.4094 15.8203 9.14769 15.6538 9.87256 15.4371C10.1979 15.3312 10.5593 15.43 10.7591 15.7102C10.9228 16.0885 10.8784 16.6659 10.4189 16.805C8.84277 17.2517 7.25255 17.6604 5.66799 18.0811C5.4026 18.1615 5.39978 17.81 5.48589 17.6477C6.09713 16.1161 6.69284 14.5788 7.32596 13.0563C6.69566 13.2413 6.05972 13.4022 5.42589 13.5786C4.93746 13.7353 4.55702 13.2928 4.46527 12.858C4.57185 12.5736 4.69819 12.2538 5.02357 12.1621ZM0.000244141 13.4869C0.840171 13.0938 1.84738 13.0761 2.66825 13.5257C3.82791 14.1066 4.52879 15.459 4.32481 16.7421C4.19847 17.9921 3.16656 19.1003 1.92502 19.3043C1.27355 19.4786 0.61572 19.2577 0.000244141 19.0488V17.1268C0.415267 17.7211 1.2199 18.0966 1.92078 17.7938C2.74024 17.5143 3.17079 16.4768 2.81223 15.694C2.53626 14.9105 1.5587 14.4122 0.77947 14.7623C0.458322 14.8872 0.204226 15.13 0.000244141 15.4025V13.4869Z" fill="white"/>
<path d="M11.9018 13.141C12.1785 11.9009 13.4292 11.2014 14.5902 10.9819C15.3504 10.9135 16.1889 10.8556 16.8595 11.2847C17.1848 11.4774 17.4693 11.8261 17.3973 12.2263C17.2484 13.0083 16.5708 13.5582 15.8932 13.897C14.85 14.391 13.5492 14.5604 12.5074 13.9746C12.1785 13.8094 12.0175 13.4721 11.9018 13.141ZM16.7084 15.1202C17.5406 14.6677 18.2612 13.9746 18.6544 13.105C20.7648 15.387 22.8956 17.6519 24.9983 19.9437V22.4056C25.023 23.2639 24.7865 24.1695 24.1245 24.7553C23.5415 25.3334 22.7022 25.5141 21.9068 25.4985H10.5911C10.9644 22.064 11.3477 18.6295 11.7161 15.1936C13.2351 16.1118 15.1881 15.9326 16.7084 15.1202Z" fill="#F91155"/>
</svg>
