<svg width="20" height="20" viewBox="0 0 20 20" fill="none" xmlns="http://www.w3.org/2000/svg">
<path d="M2.36899 5.83729e-06H17.6306C18.2325 5.83729e-06 18.8571 0.161504 19.2981 0.593484C19.7967 1.03676 20.0045 1.71155 19.9994 2.36319V6.97098C19.8481 6.49778 19.7668 5.99691 19.5669 5.54008C19.2868 5.03864 18.4483 5.33115 18.5058 5.88679C18.6634 6.54747 18.8305 7.21097 19.0547 7.85301C18.0891 7.43345 17.1269 7.00542 16.1619 6.58417C15.8519 6.44865 15.5435 6.26118 15.1929 6.27981C15.4137 7.42893 15.7892 8.54079 16.0625 9.67749C16.1624 10.0056 16.1873 10.4099 16.4849 10.6307C16.8327 10.9277 17.4358 10.5544 17.3494 10.1095C17.2427 9.44654 17.0281 8.80449 16.8491 8.15624C17.896 8.62775 18.9548 9.07215 19.9994 9.54761V15.5552C18.3172 13.7217 16.6125 11.9097 14.9241 10.0841C15.0647 9.66507 15.1404 9.20429 14.9952 8.77513C14.7671 7.92642 13.9229 7.42555 13.1137 7.23977C11.7952 6.96194 10.3519 7.35214 9.34618 8.24998C8.82328 8.72318 8.38001 9.38103 8.43761 10.1174C8.38396 10.7972 8.82328 11.4043 9.37328 11.7549C9.07852 14.5038 8.7719 17.2515 8.47318 19.9993H2.37012C1.74107 20.0027 1.08886 19.818 0.645589 19.3527C0.181422 18.9094 -0.00322791 18.2606 0.000160174 17.6327V14.8392C0.492561 15.0064 1.01884 15.1831 1.54004 15.0436C2.53331 14.8804 3.35888 13.9939 3.45995 12.9939C3.62315 11.9673 3.06242 10.8853 2.13465 10.4206C1.47793 10.0609 0.672129 10.075 0.000160174 10.3896V2.36884C-0.00661598 1.71324 0.201186 1.03563 0.703751 0.591226C1.14364 0.161504 1.76704 -0.00112352 2.36899 5.83729e-06ZM4.01899 9.32965C3.75867 9.40306 3.65759 9.65885 3.57233 9.88642C3.64573 10.2343 3.9501 10.5883 4.34085 10.463C4.84794 10.3218 5.35671 10.193 5.86097 10.0451C5.35445 11.2631 4.87787 12.493 4.38885 13.7183C4.31996 13.8482 4.32222 14.1294 4.53454 14.0651C5.80225 13.7285 7.07447 13.4016 8.3354 13.0441C8.70301 12.9329 8.73858 12.471 8.60758 12.1683C8.44777 11.9441 8.15866 11.8651 7.89834 11.9498C7.31841 12.1231 6.72776 12.2564 6.1467 12.4286C6.52221 11.4941 6.89885 10.5606 7.2642 9.62328C7.4065 9.23422 7.61317 8.86548 7.67755 8.45326C7.49064 8.45326 7.30091 8.44875 7.11739 8.49448C6.08741 8.78304 5.05235 9.05521 4.01899 9.32965ZM0.623567 11.4099C1.24697 11.1298 2.02906 11.5285 2.24984 12.1553C2.5367 12.7815 2.19225 13.6116 1.53665 13.8352C0.975927 14.0775 0.332192 13.7771 0.000160174 13.3016V11.9221C0.163353 11.7041 0.366637 11.5099 0.623567 11.4099Z" fill="#005BFF"/>
<path d="M18.5058 5.88679C18.4482 5.33114 19.2868 5.03864 19.5669 5.54007C19.7668 5.9969 19.8481 6.49777 19.9994 6.97097V9.54761C18.9548 9.07215 17.896 8.62774 16.8491 8.15624C17.0281 8.80449 17.2426 9.44653 17.3494 10.1095C17.4358 10.5544 16.8327 10.9277 16.4848 10.6307C16.1873 10.4099 16.1624 10.0056 16.0625 9.67748C15.7892 8.54078 15.4136 7.42893 15.1929 6.2798C15.5435 6.26117 15.8518 6.44864 16.1618 6.58417C17.1269 7.00542 18.0891 7.43345 19.0547 7.853C18.8305 7.21096 18.6634 6.54746 18.5058 5.88679ZM9.34616 8.24997C10.3519 7.35213 11.7952 6.96194 13.1137 7.23976C13.9229 7.42554 14.7671 7.92641 14.9952 8.77513C15.1403 9.20428 15.0647 9.66506 14.9241 10.0841C14.6095 10.7797 14.033 11.3343 13.3672 11.6962C12.1509 12.3462 10.5885 12.4896 9.37327 11.7549C8.82327 11.4043 8.38395 10.7972 8.43759 10.1174C8.38 9.38103 8.82327 8.72318 9.34616 8.24997ZM9.52178 10.1129C9.61439 10.3777 9.74313 10.6476 10.0063 10.7797C10.8397 11.2484 11.8804 11.1129 12.715 10.7176C13.2571 10.4466 13.7992 10.0067 13.9184 9.38103C13.976 9.06085 13.7484 8.7819 13.4881 8.62774C12.9516 8.28442 12.2808 8.33072 11.6726 8.3855C10.7437 8.56111 9.74313 9.12071 9.52178 10.1129ZM4.01897 9.32964C5.05234 9.05521 6.0874 8.78303 7.11737 8.49448C7.30089 8.44874 7.49063 8.45326 7.67754 8.45326C7.61316 8.86547 7.40649 9.23421 7.26419 9.62327C6.89884 10.5606 6.5222 11.4941 6.14669 12.4286C6.72774 12.2564 7.3184 12.1231 7.89832 11.9498C8.15864 11.8651 8.44776 11.9441 8.60756 12.1683C8.73857 12.471 8.70299 12.9329 8.33539 13.0441C7.07446 13.4015 5.80223 13.7285 4.53453 14.065C4.32221 14.1294 4.31995 13.8482 4.38884 13.7183C4.87785 12.493 5.35444 11.2631 5.86096 10.0451C5.3567 10.193 4.84792 10.3218 4.34084 10.463C3.95008 10.5883 3.64572 10.2343 3.57231 9.88642C3.65758 9.65885 3.75866 9.40305 4.01897 9.32964ZM0.000146866 10.3895C0.672116 10.075 1.47791 10.0609 2.13464 10.4206C3.06241 10.8853 3.62313 11.9673 3.45994 12.9938C3.35886 13.9939 2.5333 14.8804 1.54003 15.0436C1.01883 15.1831 0.492548 15.0064 0.000146866 14.8392V13.3016C0.332179 13.7771 0.975914 14.0775 1.53664 13.8352C2.19223 13.6116 2.53669 12.7815 2.24983 12.1553C2.02904 11.5285 1.24696 11.1298 0.623553 11.4099C0.366624 11.5099 0.163339 11.7041 0.000146866 11.9221V10.3895Z" fill="white"/>
<path d="M9.52181 10.1128C9.74316 9.12071 10.7438 8.56111 11.6727 8.38549C12.2808 8.33072 12.9517 8.28442 13.4881 8.62774C13.7484 8.7819 13.976 9.06085 13.9184 9.38102C13.7993 10.0067 13.2572 10.4466 12.7151 10.7176C11.8805 11.1129 10.8398 11.2484 10.0063 10.7797C9.74316 10.6476 9.61442 10.3777 9.52181 10.1128ZM13.3673 11.6962C14.033 11.3343 14.6096 10.7797 14.9241 10.0841C16.6125 11.9097 18.3173 13.7217 19.9994 15.5552V17.5248C20.0192 18.2115 19.83 18.936 19.3004 19.4047C18.8339 19.8671 18.1625 20.0117 17.5261 19.9993H8.4732C8.77191 17.2515 9.07853 14.5038 9.3733 11.7549C10.5885 12.4896 12.151 12.3462 13.3673 11.6962Z" fill="#F91155"/>
</svg>
