<svg width="30" height="30" viewBox="0 0 30 30" fill="none" xmlns="http://www.w3.org/2000/svg">
<path d="M0 12.3913C0 6.54999 0 3.62933 1.81466 1.81466C3.62933 0 6.54999 0 12.3913 0H17.6087C23.45 0 26.3707 0 28.1853 1.81466C30 3.62933 30 6.54999 30 12.3913V17.6087C30 23.45 30 26.3707 28.1853 28.1853C26.3707 30 23.45 30 17.6087 30H12.3913C6.54999 30 3.62933 30 1.81466 28.1853C0 26.3707 0 23.45 0 17.6087V12.3913Z" fill="#2259F4"/>
<mask id="mask0_7_2519" style="mask-type:alpha" maskUnits="userSpaceOnUse" x="0" y="0" width="30" height="30">
<path d="M0 12.3913C0 6.54999 0 3.62933 1.81466 1.81466C3.62933 0 6.54999 0 12.3913 0H17.6087C23.45 0 26.3707 0 28.1853 1.81466C30 3.62933 30 6.54999 30 12.3913V17.6087C30 23.45 30 26.3707 28.1853 28.1853C26.3707 30 23.45 30 17.6087 30H12.3913C6.54999 30 3.62933 30 1.81466 28.1853C0 26.3707 0 23.45 0 17.6087V12.3913Z" fill="#2259F4"/>
</mask>
<g mask="url(#mask0_7_2519)">
<path d="M14.4709 13.0588L12.5297 30L12.1768 31.2353H26.6473L31.0591 29.8235V23.6471L20.8238 12.3529L18.8826 10.9412L15.3532 11.6471L14.4709 13.0588Z" fill="#F91155"/>
<path d="M27.7596 7.95014C27.6732 7.13065 28.931 6.69925 29.3512 7.43879C29.651 8.11254 29.773 8.85125 30 9.54914V13.3493C28.433 12.648 26.8447 11.9926 25.2743 11.2972C25.5428 12.2533 25.8647 13.2002 26.0248 14.1779C26.1544 14.8342 25.2497 15.3847 24.728 14.9466C24.2816 14.621 24.2443 14.0247 24.0944 13.5408C23.6844 11.8644 23.1211 10.2246 22.7899 8.52978C23.3159 8.5023 23.7784 8.77879 24.2434 8.97867C25.6911 9.59995 27.1344 10.2312 28.5829 10.85C28.2466 9.90309 27.9959 8.92453 27.7596 7.95014ZM14.0195 11.4355C15.5281 10.1113 17.6932 9.53582 19.6711 9.94556C20.8849 10.2196 22.1512 10.9583 22.4934 12.21C22.7111 12.8429 22.5976 13.5225 22.3867 14.1404C21.9149 15.1665 21.0501 15.9843 20.0514 16.5181C18.2268 17.4767 15.8831 17.6882 14.0602 16.6047C13.2352 16.0876 12.5762 15.1923 12.6566 14.1896C12.5702 13.1036 13.2352 12.1334 14.0195 11.4355ZM14.283 14.1829C14.4219 14.5735 14.615 14.9716 15.0097 15.1665C16.26 15.8577 17.8211 15.6578 19.073 15.0749C19.8862 14.6751 20.6994 14.0264 20.8781 13.1036C20.9645 12.6314 20.6231 12.22 20.2327 11.9926C19.428 11.4863 18.4217 11.5546 17.5094 11.6353C16.116 11.8943 14.615 12.7197 14.283 14.1829ZM6.02846 13.0278C7.57856 12.6231 9.13121 12.2216 10.6762 11.7961C10.9515 11.7286 11.2361 11.7353 11.5165 11.7353C11.4199 12.3432 11.1099 12.8871 10.8965 13.4609C10.3484 14.8433 9.78344 16.22 9.22015 17.5983C10.0918 17.3443 10.9778 17.1477 11.8477 16.8921C12.2382 16.7671 12.6719 16.8837 12.9116 17.2144C13.1081 17.6608 13.0547 18.342 12.5033 18.5061C10.6119 19.0332 8.70345 19.5154 6.80182 20.0118C6.48333 20.1067 6.47994 19.692 6.58328 19.5004C7.31683 17.6932 8.03174 15.8794 8.79154 14.083C8.03512 14.3012 7.27193 14.4911 6.51128 14.6993C5.92512 14.8842 5.46856 14.362 5.35844 13.849C5.48635 13.5133 5.63797 13.1361 6.02846 13.0278ZM0 14.591C1.00799 14.1271 2.21673 14.1063 3.20185 14.6368C4.59356 15.3222 5.43468 16.9179 5.18988 18.4319C5.03826 19.9069 3.79987 21.2144 2.30991 21.4551C1.52808 21.6608 0.738628 21.4001 0 21.1536V18.8858C0.498066 19.5871 1.4637 20.0301 2.30483 19.6728C3.28825 19.343 3.80495 18.1188 3.37465 17.1952C3.04345 16.2708 1.87029 15.6828 0.935144 16.0959C0.549736 16.2433 0.244798 16.5298 0 16.8513V14.591Z" fill="white"/>
</g>
</svg>
