<svg width="16" height="16" viewBox="0 0 16 16" fill="none" xmlns="http://www.w3.org/2000/svg">
<path d="M15.3703 14.735L11.7242 11.0898C12.7023 9.96563 13.2944 8.49889 13.2944 6.89579C13.2944 3.36696 10.4235 0.5 6.89721 0.5C3.3676 0.5 0.5 3.37029 0.5 6.89579C0.5 10.4213 3.37092 13.2916 6.89721 13.2916C8.50067 13.2916 9.96773 12.6996 11.0922 11.7217L14.7382 15.367C14.8247 15.4534 14.9411 15.5 15.0542 15.5C15.1673 15.5 15.2838 15.4568 15.3703 15.367C15.5432 15.194 15.5432 14.908 15.3703 14.735ZM1.39488 6.89579C1.39488 3.86253 3.86327 1.398 6.89388 1.398C9.92781 1.398 12.3929 3.86585 12.3929 6.89579C12.3929 9.92572 9.92781 12.3969 6.89388 12.3969C3.86327 12.3969 1.39488 9.92905 1.39488 6.89579Z" fill="white" stroke="white" stroke-width="0.4"/>
</svg>
