<svg width="20" height="20" viewBox="0 0 20 20" fill="none" xmlns="http://www.w3.org/2000/svg">
<path d="M18.8443 18.082L14.4691 13.7078C15.6427 12.3588 16.3533 10.5987 16.3533 8.67494C16.3533 4.44035 12.9082 1 8.67665 1C4.44112 1 1 4.44435 1 8.67494C1 12.9055 4.44511 16.3499 8.67665 16.3499C10.6008 16.3499 12.3613 15.6395 13.7106 14.4661L18.0858 18.8404C18.1896 18.9441 18.3293 19 18.4651 19C18.6008 19 18.7405 18.9481 18.8443 18.8404C19.0519 18.6328 19.0519 18.2896 18.8443 18.082ZM2.07385 8.67494C2.07385 5.03503 5.03593 2.07761 8.67265 2.07761C12.3134 2.07761 15.2715 5.03902 15.2715 8.67494C15.2715 12.3109 12.3134 15.2763 8.67265 15.2763C5.03593 15.2763 2.07385 12.3149 2.07385 8.67494Z" fill="#434C5D" stroke="#434C5D" stroke-width="0.4"/>
</svg>
