<svg width="17" height="16" viewBox="0 0 17 16" fill="none" xmlns="http://www.w3.org/2000/svg">
<path d="M15.8703 14.735L12.2242 11.0898C13.2023 9.96563 13.7944 8.49889 13.7944 6.89579C13.7944 3.36696 10.9235 0.5 7.39721 0.5C3.8676 0.5 1 3.37029 1 6.89579C1 10.4213 3.87092 13.2916 7.39721 13.2916C9.00067 13.2916 10.4677 12.6996 11.5922 11.7217L15.2382 15.367C15.3247 15.4534 15.4411 15.5 15.5542 15.5C15.6673 15.5 15.7838 15.4568 15.8703 15.367C16.0432 15.194 16.0432 14.908 15.8703 14.735ZM1.89488 6.89579C1.89488 3.86253 4.36327 1.398 7.39388 1.398C10.4278 1.398 12.8929 3.86585 12.8929 6.89579C12.8929 9.92572 10.4278 12.3969 7.39388 12.3969C4.36327 12.3969 1.89488 9.92905 1.89488 6.89579Z" fill="#434C5D" stroke="#434C5D" stroke-width="0.4"/>
</svg>
