<svg width="15" height="16" viewBox="0 0 15 16" fill="none" xmlns="http://www.w3.org/2000/svg">
<path d="M9.14957 3.46258L9.11862 3.29997H8.95309H0.20006V2.70004H8.95309H9.11862L9.14957 2.53743C9.35084 1.47976 10.2227 0.7 11.25 0.7C12.2772 0.7 13.1491 1.47976 13.3504 2.53743L13.3813 2.70004H13.5469H14.8V3.29997H13.5469H13.3813L13.3504 3.46258C13.1491 4.52013 12.2772 5.30001 11.25 5.30001C10.2227 5.30001 9.35084 4.52013 9.14957 3.46258ZM1.64961 8.46259L1.61866 8.29998H1.45314H0.2V7.70005H1.45314H1.61866L1.64961 7.53744C1.85089 6.47989 2.72276 5.70001 3.75002 5.70001C4.77728 5.70001 5.64916 6.47989 5.85043 7.53744L5.88138 7.70005H6.04691H14.7999V8.29998H6.04691H5.88138L5.85043 8.46259C5.64916 9.52015 4.77728 10.3 3.75002 10.3C2.72276 10.3 1.85089 9.52015 1.64961 8.46259ZM8.95303 12.7H9.11856L9.14951 12.5374C9.35078 11.4799 10.2227 10.7 11.2499 10.7C12.2772 10.7 13.1491 11.4799 13.3503 12.5374L13.3813 12.7H13.5468H14.7999V13.3H13.5468H13.3813L13.3503 13.4626C13.1491 14.5202 12.2772 15.3 11.2499 15.3C10.2227 15.3 9.35078 14.5202 9.14951 13.4626L9.11856 13.3H8.95303H0.2V12.7H8.95303ZM11.25 1.29994C10.3509 1.29994 9.6437 2.07347 9.6437 2.99999C9.6437 3.92653 10.3509 4.69991 11.25 4.69991C12.149 4.69991 12.8561 3.92651 12.8561 2.99999C12.8561 2.07349 12.1491 1.29994 11.25 1.29994ZM3.75002 6.29995C2.85094 6.29995 2.14386 7.0735 2.14386 8C2.14386 8.9265 2.85094 9.70005 3.75002 9.70005C4.64908 9.70005 5.3563 8.92652 5.3563 8C5.3563 7.07348 4.64908 6.29995 3.75002 6.29995ZM11.2499 11.3001C10.3509 11.3001 9.64364 12.0735 9.64364 13C9.64364 13.9265 10.3509 14.7001 11.2499 14.7001C12.149 14.7001 12.8561 13.9265 12.8561 13C12.8561 12.0735 12.149 11.3001 11.2499 11.3001Z" fill="#434C5D" stroke="#434C5D" stroke-width="0.4"/>
</svg>
