<svg width="85" height="85" viewBox="0 0 85 85" fill="none" xmlns="http://www.w3.org/2000/svg">
<rect width="85" height="85" rx="19" fill="url(#paint0_linear_115_3596)"/>
<path d="M71.072 43.9475C70.0665 43.1458 68.878 42.7596 67.5374 42.4628C67.7812 42.3738 67.9334 42.3439 68.0858 42.3143C69.1828 41.9877 70.1885 41.4533 70.9806 40.6219C72.5348 38.9888 72.9612 37.029 72.6567 34.8911C72.3215 32.3967 70.3408 29.665 67.4155 29.0415C66.1966 28.7742 64.9778 28.6258 63.7282 28.6258C61.0468 28.6258 58.3957 28.6258 55.7141 28.5959C54.5258 28.5959 53.3068 28.6258 52.1185 28.5959C51.7223 28.5959 51.6309 28.7147 51.6309 29.0711C51.6614 29.4868 51.6309 29.9025 51.6309 30.3183C51.6309 30.526 51.6614 30.7635 51.6614 30.9715V56.864C51.6614 57.161 51.6005 57.4282 52.1185 57.4282C56.4759 57.3985 60.8029 57.3985 65.1605 57.3687C66.5013 57.3687 67.8114 57.1905 69.0609 56.6562C72.0472 55.4387 73.4793 53.1525 73.7231 50.094C73.8449 47.6889 73.0832 45.5509 71.072 43.9475ZM56.6894 36.7023V33.1688C56.6894 32.8718 56.7197 32.7235 57.1159 32.7235C59.2185 32.7531 61.321 32.7234 63.4235 32.7531C65.4042 32.7828 67.0194 33.9408 67.385 35.5442C68.0249 38.3651 66.166 40.6812 63.2102 40.6812C61.1991 40.7108 59.2185 40.6812 57.2074 40.6812C56.8112 40.6812 56.6894 40.592 56.7197 40.2062C56.6894 39.0481 56.6894 37.89 56.6894 36.7023ZM64.4597 53.0038C61.9914 53.1525 59.4927 53.0337 57.0245 53.0633C56.6894 53.0633 56.6894 52.8555 56.6894 52.6476V48.9656V45.2541C56.6894 44.9571 56.7807 44.8383 57.0854 44.8383C59.4014 44.8679 61.7477 44.8085 64.0635 44.8679C66.1051 44.9274 67.6898 46.1446 68.1467 47.956C68.7866 50.4504 67.1108 52.8258 64.4597 53.0038Z" fill="white"/>
<path d="M40.9823 40.5484C41.968 36.7818 42.9835 33.015 43.9391 29.2187C44.0587 28.7739 44.208 28.6553 44.6858 28.6553C46.0298 28.6849 47.3439 28.6553 48.7476 28.6553C48.3594 30.1381 47.9712 31.5915 47.5829 33.015C46.6571 36.4555 45.7311 39.8663 44.8054 43.3068C44.7755 43.3958 44.7755 43.4846 44.7755 43.544C44.2378 45.5015 43.7003 47.4888 43.1628 49.4462C42.4758 51.9671 41.7888 54.4882 41.1317 57.0093C41.0423 57.3059 40.9527 57.454 40.5943 57.4245C39.071 57.3947 37.518 57.3947 35.9949 57.4245C35.6365 57.4245 35.517 57.3354 35.4273 56.9794C33.6355 50.3359 31.8135 43.6925 29.9917 37.0487C29.932 36.8707 29.8722 36.6927 29.7228 36.5147C29.3644 37.9087 29.0361 39.3029 28.6777 40.7264C27.3336 46.0946 26.0195 51.4926 24.7053 56.8608C24.5859 57.3059 24.4066 57.4245 23.9588 57.4245C22.5252 57.3947 21.0916 57.3947 19.6579 57.4245C19.2995 57.4245 19.1503 57.3059 19.0309 56.9794C17.5375 51.4629 16.0144 45.976 14.4912 40.4595C13.4458 36.6927 12.4303 32.9261 11.3851 29.1593C11.3552 29.0112 11.2955 28.8332 11.2656 28.6255H16.5519C16.8506 28.6255 16.8506 28.8332 16.9102 29.0112C17.8661 32.5406 18.7919 36.0995 19.7475 39.6291C20.5839 42.7729 21.4202 45.9166 22.2862 49.0309C22.316 49.12 22.3459 49.1792 22.4356 49.2682C22.6147 48.586 22.794 47.904 22.9732 47.2514C24.3469 41.7052 25.7507 36.1294 27.1244 30.583C27.2738 30.0196 27.4231 29.4858 27.5427 28.9221C27.6024 28.6849 27.692 28.5959 27.931 28.5959C29.484 28.5959 31.0371 28.6255 32.5901 28.5959C32.9186 28.5959 32.9783 28.7739 33.0381 29.0112C34.2028 33.2227 35.3378 37.4046 36.5025 41.6161C37.2193 44.1965 37.9361 46.7769 38.7126 49.3868C39.4593 46.4505 40.206 43.5145 40.9823 40.5484Z" fill="white"/>
<defs>
<linearGradient id="paint0_linear_115_3596" x1="4.16667" y1="79.1667" x2="79.1667" y2="5" gradientUnits="userSpaceOnUse">
<stop stop-color="#E700BF"/>
<stop offset="1" stop-color="#57009B"/>
</linearGradient>
</defs>
</svg>
