<svg width="30" height="30" viewBox="0 0 30 30" fill="none" xmlns="http://www.w3.org/2000/svg">
<path d="M0 13.4118C0 7.0894 0 3.92821 1.96411 1.96411C3.92821 0 7.0894 0 13.4118 0H16.5882C22.9106 0 26.0718 0 28.0359 1.96411C30 3.92821 30 7.0894 30 13.4118V16.5882C30 22.9106 30 26.0718 28.0359 28.0359C26.0718 30 22.9106 30 16.5882 30H13.4118C7.0894 30 3.92821 30 1.96411 28.0359C0 26.0718 0 22.9106 0 16.5882V13.4118Z" fill="url(#paint0_linear_7_2526)"/>
<path d="M25.0842 15.5109C24.7293 15.2279 24.3099 15.0916 23.8367 14.9869C23.9228 14.9555 23.9765 14.9449 24.0303 14.9345C24.4175 14.8192 24.7724 14.6306 25.052 14.3371C25.6005 13.7607 25.751 13.069 25.6435 12.3145C25.5252 11.4341 24.8262 10.47 23.7937 10.2499C23.3635 10.1556 22.9333 10.1032 22.4923 10.1032C21.5459 10.1032 20.6102 10.1032 19.6638 10.0927C19.2444 10.0927 18.8142 10.1032 18.3948 10.0927C18.2549 10.0927 18.2227 10.1346 18.2227 10.2604C18.2334 10.4071 18.2227 10.5538 18.2227 10.7006C18.2227 10.7739 18.2334 10.8577 18.2334 10.9311V20.0696C18.2334 20.1745 18.2119 20.2688 18.3948 20.2688C19.9327 20.2583 21.4599 20.2583 22.9978 20.2478C23.4711 20.2478 23.9334 20.1849 24.3745 19.9963C25.4284 19.5666 25.9339 18.7597 26.0199 17.6802C26.0629 16.8314 25.7941 16.0768 25.0842 15.5109ZM20.008 12.9537V11.7066C20.008 11.6018 20.0187 11.5495 20.1586 11.5495C20.9006 11.5599 21.6427 11.5494 22.3848 11.5599C23.0838 11.5704 23.6539 11.9791 23.7829 12.545C24.0088 13.5406 23.3527 14.3581 22.3095 14.3581C21.5997 14.3685 20.9006 14.3581 20.1908 14.3581C20.051 14.3581 20.008 14.3266 20.0187 14.1904C20.008 13.7817 20.008 13.3729 20.008 12.9537ZM22.7505 18.7072C21.8793 18.7597 20.9974 18.7178 20.1263 18.7282C20.008 18.7282 20.008 18.6549 20.008 18.5815V17.282V15.972C20.008 15.8672 20.0402 15.8253 20.1478 15.8253C20.9652 15.8357 21.7933 15.8147 22.6107 15.8357C23.3312 15.8567 23.8905 16.2863 24.0518 16.9256C24.2776 17.806 23.6862 18.6444 22.7505 18.7072Z" fill="white"/>
<path d="M14.4643 14.3112C14.8122 12.9818 15.1706 11.6524 15.5079 10.3125C15.5501 10.1555 15.6028 10.1136 15.7714 10.1136C16.2458 10.1241 16.7096 10.1136 17.205 10.1136C17.068 10.637 16.931 11.1499 16.7939 11.6524C16.4672 12.8666 16.1403 14.0704 15.8136 15.2847C15.8031 15.3162 15.8031 15.3475 15.8031 15.3685C15.6133 16.0594 15.4236 16.7607 15.2339 17.4516C14.9914 18.3413 14.7489 19.2311 14.517 20.1209C14.4855 20.2256 14.4539 20.2779 14.3274 20.2675C13.7897 20.2569 13.2416 20.2569 12.7041 20.2675C12.5776 20.2675 12.5354 20.236 12.5037 20.1104C11.8713 17.7656 11.2283 15.4209 10.5853 13.076C10.5642 13.0132 10.5431 12.9504 10.4904 12.8876C10.3639 13.3796 10.248 13.8716 10.1215 14.374C9.64714 16.2687 9.18332 18.1739 8.7195 20.0685C8.67735 20.2256 8.61408 20.2675 8.45601 20.2675C7.95004 20.2569 7.44407 20.2569 6.93806 20.2675C6.81156 20.2675 6.75891 20.2256 6.71676 20.1104C6.18967 18.1634 5.65212 16.2268 5.11452 14.2798C4.74555 12.9504 4.38715 11.621 4.01823 10.2915C4.00769 10.2392 3.98662 10.1764 3.97607 10.1031H5.84183C5.94725 10.1031 5.94725 10.1764 5.96827 10.2392C6.30565 11.4849 6.63242 12.741 6.96969 13.9867C7.26487 15.0963 7.56006 16.2059 7.8657 17.305C7.87621 17.3365 7.88677 17.3574 7.9184 17.3888C7.98162 17.148 8.0449 16.9073 8.10817 16.677C8.59301 14.7195 9.08846 12.7515 9.5733 10.794C9.62601 10.5952 9.67872 10.4067 9.72092 10.2078C9.74199 10.1241 9.77363 10.0927 9.85798 10.0927C10.4061 10.0927 10.9543 10.1031 11.5024 10.0927C11.6183 10.0927 11.6394 10.1555 11.6605 10.2392C12.0715 11.7257 12.4721 13.2016 12.8832 14.688C13.1362 15.5987 13.3892 16.5095 13.6632 17.4306C13.9268 16.3943 14.1903 15.358 14.4643 14.3112Z" fill="white"/>
<defs>
<linearGradient id="paint0_linear_7_2526" x1="1.47059" y1="27.9412" x2="27.9412" y2="1.76471" gradientUnits="userSpaceOnUse">
<stop stop-color="#E700BF"/>
<stop offset="1" stop-color="#57009B"/>
</linearGradient>
</defs>
</svg>
