<svg width="20" height="20" viewBox="0 0 20 20" fill="none" xmlns="http://www.w3.org/2000/svg">
<path d="M0 8.94118C0 4.72626 0 2.61881 1.3094 1.3094C2.61881 0 4.72627 0 8.94118 0H11.0588C15.2737 0 17.3812 0 18.6906 1.3094C20 2.61881 20 4.72627 20 8.94118V11.0588C20 15.2737 20 17.3812 18.6906 18.6906C17.3812 20 15.2737 20 11.0588 20H8.94118C4.72626 20 2.61881 20 1.3094 18.6906C0 17.3812 0 15.2737 0 11.0588V8.94118Z" fill="url(#paint0_linear_115_1067)"/>
<path d="M16.7227 10.3406C16.4861 10.152 16.2064 10.0611 15.891 9.99128C15.9484 9.97033 15.9842 9.9633 16.02 9.95634C16.2782 9.87948 16.5148 9.75375 16.7012 9.55812C17.0669 9.17386 17.1672 8.71273 17.0955 8.2097C17.0167 7.62277 16.5506 6.98003 15.8623 6.83333C15.5755 6.77042 15.2887 6.73551 14.9947 6.73551C14.3638 6.73551 13.74 6.73552 13.109 6.72849C12.8294 6.72849 12.5426 6.73552 12.263 6.72849C12.1698 6.72849 12.1483 6.75643 12.1483 6.84029C12.1555 6.9381 12.1483 7.03592 12.1483 7.13373C12.1483 7.18262 12.1555 7.23851 12.1555 7.28743V13.3798C12.1555 13.4497 12.1411 13.5125 12.263 13.5125C13.2883 13.5055 14.3064 13.5055 15.3317 13.4986C15.6472 13.4986 15.9555 13.4566 16.2495 13.3309C16.9521 13.0444 17.2891 12.5065 17.3465 11.7868C17.3751 11.2209 17.1959 10.7179 16.7227 10.3406ZM13.3385 8.63586V7.80445C13.3385 7.73458 13.3457 7.69968 13.4389 7.69968C13.9336 7.70663 14.4283 7.69964 14.923 7.70663C15.3891 7.71363 15.7691 7.98609 15.8551 8.36336C16.0057 9.02712 15.5683 9.57208 14.8728 9.57208C14.3996 9.57904 13.9336 9.57208 13.4604 9.57208C13.3672 9.57208 13.3385 9.55109 13.3457 9.46031C13.3385 9.18781 13.3385 8.91531 13.3385 8.63586ZM15.1668 12.4715C14.5861 12.5065 13.9981 12.4785 13.4174 12.4855C13.3385 12.4855 13.3385 12.4366 13.3385 12.3877V11.5213V10.648C13.3385 10.5782 13.36 10.5502 13.4317 10.5502C13.9766 10.5572 14.5287 10.5432 15.0736 10.5572C15.554 10.5712 15.9268 10.8576 16.0344 11.2838C16.1849 11.8707 15.7906 12.4296 15.1668 12.4715Z" fill="white"/>
<path d="M9.64287 9.54084C9.87479 8.65457 10.1137 7.76827 10.3386 6.87502C10.3667 6.77037 10.4019 6.74246 10.5143 6.74246C10.8305 6.74941 11.1397 6.74246 11.47 6.74246C11.3786 7.09135 11.2873 7.43332 11.1959 7.76827C10.9781 8.57779 10.7602 9.38033 10.5424 10.1899C10.5354 10.2108 10.5354 10.2317 10.5354 10.2457C10.4089 10.7063 10.2824 11.1739 10.1559 11.6344C9.99426 12.2276 9.83261 12.8208 9.67801 13.414C9.65699 13.4838 9.6359 13.5186 9.55157 13.5117C9.19313 13.5047 8.82772 13.5047 8.46936 13.5117C8.38503 13.5117 8.3569 13.4907 8.33581 13.4069C7.9142 11.8438 7.48549 10.2806 7.05684 8.71738C7.04279 8.6755 7.02871 8.63361 6.99357 8.59173C6.90924 8.91973 6.83199 9.24777 6.74766 9.58272C6.43141 10.8458 6.1222 12.1159 5.81298 13.379C5.78489 13.4838 5.7427 13.5117 5.63732 13.5117C5.30001 13.5047 4.9627 13.5047 4.62535 13.5117C4.54103 13.5117 4.50592 13.4838 4.47783 13.4069C4.12643 12.109 3.76806 10.8179 3.40966 9.51991C3.16369 8.63361 2.92475 7.74735 2.67881 6.86105C2.67178 6.82619 2.65773 6.7843 2.6507 6.73544H3.89454C3.96482 6.73544 3.96482 6.7843 3.97883 6.82619C4.20375 7.65663 4.4216 8.49403 4.64645 9.32451C4.84323 10.0642 5.04002 10.8039 5.24378 11.5367C5.25079 11.5577 5.25783 11.5716 5.27892 11.5925C5.32107 11.432 5.36325 11.2716 5.40543 11.118C5.72866 9.81302 6.05896 8.50105 6.38219 7.19603C6.41733 7.06347 6.45247 6.93786 6.4806 6.80523C6.49465 6.74941 6.51574 6.72849 6.57197 6.72849C6.93738 6.72849 7.30282 6.73544 7.66823 6.72849C7.74551 6.72849 7.75956 6.77037 7.77365 6.82619C8.04768 7.81714 8.31475 8.80111 8.58879 9.79206C8.75744 10.3992 8.9261 11.0064 9.1088 11.6204C9.2845 10.9295 9.4602 10.2387 9.64287 9.54084Z" fill="white"/>
<defs>
<linearGradient id="paint0_linear_115_1067" x1="0.980392" y1="18.6274" x2="18.6275" y2="1.17647" gradientUnits="userSpaceOnUse">
<stop stop-color="#E700BF"/>
<stop offset="1" stop-color="#57009B"/>
</linearGradient>
</defs>
</svg>
